<?xml version="1.0" standalone="no"?>
<!DOCTYPE svg PUBLIC "-//W3C//DTD SVG 20010904//EN"
 "http://www.w3.org/TR/2001/REC-SVG-20010904/DTD/svg10.dtd">
<svg version="1.0" xmlns="http://www.w3.org/2000/svg"
 width="10em" height="2em" viewBox="0 0 1920.000000 358.000000"
 preserveAspectRatio="xMidYMid meet">
<metadata>
Created by potrace 1.15, written by Peter Selinger 2001-2017
</metadata>
<g transform="translate(0.000000,358.000000) scale(0.100000,-0.100000)"
fill="#03a650" stroke="none">
<path d="M4568 3478 c-9 -7 -21 -33 -27 -58 -9 -38 -10 -40 -7 -8 3 25 0 38
-10 42 -8 3 -14 1 -14 -4 0 -6 -7 -10 -15 -10 -30 0 -119 -53 -170 -101 -29
-27 -57 -49 -63 -49 -6 0 -22 -18 -34 -40 -29 -50 -54 -58 -27 -8 8 14 8 23 0
31 -8 8 -11 8 -11 0 0 -10 -87 -40 -102 -35 -5 1 -8 -3 -8 -9 0 -6 -6 -9 -12
-6 -17 5 -58 -42 -51 -60 6 -16 49 -17 110 -1 44 11 47 10 70 -16 30 -36 29
-50 -8 -78 -17 -13 -50 -40 -74 -61 l-44 -39 39 -76 c44 -86 73 -162 62 -162
-4 0 -1 -4 6 -9 7 -4 14 -19 16 -32 1 -14 5 -29 8 -34 7 -11 30 -91 33 -115 1
-8 5 -22 8 -30 10 -24 46 -161 45 -169 -1 -3 1 -13 5 -21 12 -31 31 -96 32
-110 0 -9 4 -20 7 -25 9 -16 51 -148 56 -175 9 -56 14 -171 7 -188 -4 -9 -9
-41 -10 -70 -2 -29 -8 -59 -14 -66 -6 -7 -9 -15 -6 -18 7 -7 -27 -104 -60
-168 -80 -159 -219 -304 -366 -380 -83 -43 -189 -84 -197 -75 -3 3 -11 0 -19
-7 -7 -6 -16 -8 -20 -5 -3 4 -12 2 -19 -4 -19 -15 -127 -21 -137 -6 -6 8 -7 7
-4 -4 5 -15 -7 -17 -94 -17 -59 -1 -99 3 -99 9 0 6 -7 6 -19 -1 -11 -5 -33
-10 -50 -10 -24 0 -29 3 -25 18 4 10 2 13 -3 6 -11 -14 -87 -18 -78 -4 4 6 0
7 -10 4 -19 -8 -163 15 -171 27 -11 18 -34 -3 -28 -26 3 -13 -1 -37 -10 -53
-19 -37 -76 -92 -95 -92 -8 0 7 18 32 40 25 23 49 50 52 61 9 28 -4 79 -21 79
-8 0 -14 4 -14 9 0 5 -9 7 -20 4 -12 -3 -20 0 -20 6 0 7 -4 9 -10 6 -5 -3 -42
8 -83 25 -106 44 -219 151 -230 216 -1 10 -6 25 -11 33 -13 21 -21 155 -9 148
6 -4 9 5 7 24 -8 63 65 228 157 359 65 92 185 213 264 266 69 46 82 76 38 91
-58 20 -336 -8 -543 -53 -14 -3 -225 -9 -470 -13 l-445 -8 -110 -33 c-133 -39
-382 -139 -433 -172 -20 -14 -91 -60 -157 -103 -213 -140 -399 -347 -501 -560
-22 -44 -43 -83 -49 -87 -5 -4 -7 -8 -3 -8 6 0 -10 -55 -29 -100 -3 -8 -7 -19
-7 -25 -5 -38 -20 -102 -26 -115 -13 -26 6 -55 43 -67 l35 -11 47 113 c197
477 504 757 990 904 185 56 255 66 440 66 157 -1 176 -3 251 -28 96 -32 182
-86 244 -153 90 -97 123 -211 123 -424 0 -151 -16 -225 -78 -377 -19 -47 -32
-90 -28 -96 3 -6 1 -7 -5 -3 -7 4 -12 3 -12 -1 0 -9 308 -20 1195 -44 215 -5
426 -14 470 -19 48 -5 86 -5 95 1 11 7 7 8 -11 3 -16 -3 -30 -1 -34 7 -5 7 -4
10 3 5 25 -15 231 283 317 459 103 214 143 369 151 590 9 230 -26 405 -126
625 -85 189 -98 265 -60 349 11 24 18 46 15 49 -3 3 -5 0 -5 -7 0 -24 -19 0
-29 36 -7 24 -7 41 -1 48 6 7 7 14 4 17 -10 10 50 49 68 45 10 -3 21 -1 24 4
6 10 85 2 94 -9 3 -4 22 -8 42 -10 l38 -4 3 169 3 168 2 -173 c2 -191 3 -193
66 -172 21 7 38 20 42 33 3 12 19 49 35 82 37 76 52 161 46 249 -3 52 -9 73
-23 83 -23 17 -105 17 -126 1z m118 -12 c16 -13 19 -27 19 -108 0 -101 -21
-189 -54 -229 l-20 -24 -21 49 c-39 86 -15 202 58 279 14 15 21 27 14 27 -6 0
-23 -17 -38 -37 -39 -53 -49 -62 -34 -33 7 14 22 35 33 47 26 29 18 37 -27 29
-32 -6 -37 -11 -42 -47 -4 -22 -9 -38 -11 -35 -12 11 10 85 25 89 36 10 79 6
98 -7z"/>
<path d="M11717 3472 c-22 -24 -21 -35 3 -57 11 -10 20 -21 20 -25 0 -4 -42
-38 -92 -75 -101 -75 -371 -341 -509 -500 -73 -85 -108 -135 -95 -135 11 0
203 105 212 117 16 18 243 123 269 123 11 0 51 12 90 27 38 15 139 48 223 74
l153 47 36 -56 c20 -32 49 -73 64 -92 26 -35 108 -164 154 -245 12 -22 53 -94
90 -159 78 -136 175 -343 234 -493 l39 -102 -62 -5 c-33 -3 -155 -13 -271 -21
-115 -9 -232 -22 -260 -29 -72 -20 -291 -68 -355 -77 -73 -11 -415 -114 -415
-125 0 -5 4 -33 8 -61 7 -50 9 -53 37 -53 17 0 30 4 30 9 0 11 59 25 68 16 3
-3 0 -10 -7 -14 -11 -7 -10 -18 4 -62 15 -47 43 -117 51 -127 1 -2 15 3 31 11
28 16 89 37 104 37 5 0 6 -6 3 -13 -2 -7 2 -49 11 -92 8 -44 15 -88 15 -97 0
-9 -21 -31 -46 -48 -25 -18 -43 -34 -41 -37 3 -2 33 16 67 41 34 25 67 46 74
46 12 -1 120 -170 112 -177 -6 -6 -96 133 -96 147 0 6 -6 10 -13 10 -19 0 -58
-30 -52 -40 3 -5 0 -12 -6 -16 -8 -5 -9 -3 -4 6 5 8 3 11 -4 9 -7 -3 -11 -7
-9 -10 2 -3 -3 -13 -11 -22 -11 -14 -11 -17 -1 -17 8 0 11 -3 7 -6 -3 -3 -11
-3 -17 1 -8 5 -8 11 1 21 18 22 -3 16 -36 -10 -16 -13 -27 -27 -23 -31 6 -6
103 10 135 22 7 3 32 -15 56 -41 l42 -46 40 14 c22 8 76 31 120 51 118 55 469
186 494 185 16 -1 -36 -23 -130 -54 -102 -33 -366 -140 -466 -189 l-51 -24
-50 49 c-41 42 -52 48 -68 40 -10 -6 -41 -16 -68 -23 -65 -17 -43 -23 30 -10
l58 11 46 -45 c45 -44 47 -45 76 -31 16 8 72 31 124 51 52 21 124 51 160 68
36 16 100 42 144 58 l78 29 -92 -88 c-51 -48 -114 -99 -140 -115 -37 -21 -51
-37 -64 -71 -15 -38 -22 -46 -54 -53 -45 -11 -76 -53 -93 -128 -17 -75 -12
-81 68 -89 37 -4 100 -12 139 -18 l71 -10 -29 -91 c-32 -99 -48 -235 -38 -315
5 -41 14 -60 41 -88 32 -33 37 -35 79 -30 60 8 152 54 222 110 56 44 168 171
168 189 0 4 14 29 32 55 17 26 32 48 33 49 0 1 18 -2 38 -8 28 -8 42 -7 59 5
20 12 40 12 158 -5 74 -10 223 -25 331 -34 l196 -17 99 65 100 64 -22 -46
c-35 -73 -57 -200 -52 -307 5 -120 16 -134 102 -134 53 0 71 6 135 41 162 90
352 319 406 490 14 44 25 90 25 103 l0 23 77 -18 c42 -10 79 -16 81 -14 10 10
-104 165 -175 237 -42 43 -79 78 -82 78 -3 0 -12 4 -20 9 -11 7 -8 17 17 49
37 46 39 60 13 93 -10 13 -49 69 -86 124 -118 173 -136 200 -152 218 -9 9 -12
17 -8 17 5 0 2 6 -7 12 -8 7 -44 54 -79 103 -84 119 -106 153 -88 138 8 -7 34
-15 58 -19 43 -7 44 -6 98 52 30 32 66 80 79 107 l24 47 -45 95 c-25 52 -45
99 -45 105 0 18 18 10 23 -10 6 -25 28 -21 187 30 63 21 116 37 118 36 1 -2
-7 -29 -19 -62 -24 -69 -69 -267 -63 -274 6 -5 1 -9 169 120 76 58 199 149
274 203 75 54 137 102 139 106 1 4 -16 52 -39 106 -23 55 -80 196 -128 313
-47 116 -90 212 -96 212 -5 0 -30 -67 -54 -148 -58 -192 -81 -244 -115 -260
-38 -17 -254 -42 -368 -42 -88 0 -288 23 -308 35 -16 10 -40 -8 -40 -29 0 -12
-9 -39 -20 -61 -22 -44 -25 -88 -10 -185 21 -139 14 -127 71 -133 44 -5 61 -2
113 23 33 16 50 22 36 13 -14 -9 -58 -50 -99 -90 -41 -40 -78 -73 -83 -73 -4
0 -10 10 -12 23 -23 126 -38 216 -47 290 -9 86 -9 90 16 132 14 24 25 55 25
68 0 14 6 30 14 36 8 7 33 36 55 65 l41 53 -15 81 c-13 69 -34 141 -60 205 -4
9 -3 17 3 17 5 0 19 -22 30 -48 28 -65 93 -314 80 -306 -6 4 -8 -3 -6 -17 4
-27 28 -38 28 -13 0 15 3 15 23 -4 24 -22 47 -29 47 -14 0 5 21 23 46 41 l45
33 -20 22 c-12 12 -21 34 -21 48 0 18 -12 36 -37 57 l-38 31 72 -35 c40 -19
78 -35 86 -35 7 0 21 14 31 30 9 17 21 28 26 25 5 -3 -5 -20 -21 -37 -27 -30
-31 -31 -62 -20 -18 7 -36 12 -40 12 -11 0 -1 -46 16 -70 9 -14 17 -27 17 -31
0 -3 -18 -18 -40 -33 -68 -45 -56 -49 118 -43 159 5 321 31 327 51 2 6 38 106
81 223 l77 211 72 -151 c39 -84 81 -172 92 -197 118 -257 163 -361 163 -380 0
-16 -328 -257 -612 -450 l-117 -80 5 33 c9 49 61 228 83 286 10 28 16 51 13
51 -8 0 -215 -62 -221 -67 -3 -2 8 -31 24 -64 l29 -60 -27 -52 c-15 -29 -54
-80 -86 -114 -56 -61 -59 -62 -91 -53 -19 5 -35 8 -38 6 -5 -5 122 -187 146
-209 14 -13 48 -21 118 -28 55 -6 236 -26 404 -45 167 -18 309 -34 316 -34 12
0 43 120 68 265 13 72 41 203 96 445 11 47 28 130 38 185 11 55 40 197 66 315
26 118 56 260 67 315 12 55 37 168 56 252 19 84 33 167 31 186 l-3 34 -175
-32 c-96 -17 -211 -37 -255 -44 -44 -7 -161 -28 -260 -46 -99 -19 -211 -40
-250 -46 -91 -15 -101 -21 -108 -67 -4 -24 -18 -49 -37 -67 -16 -16 -30 -37
-30 -47 0 -11 -12 -31 -26 -45 -22 -22 -31 -25 -70 -19 -31 4 -43 2 -38 -5 11
-19 72 -39 117 -39 78 0 91 -50 28 -110 -31 -30 -38 -43 -35 -66 4 -24 3 -26
-5 -9 -16 33 -12 51 12 64 26 14 57 60 57 85 0 12 -11 16 -48 16 -60 0 -136
36 -140 66 -3 20 0 21 36 14 61 -11 89 5 96 54 1 9 12 23 24 32 35 24 52 68
52 134 0 45 -3 60 -14 60 -8 0 -17 14 -21 33 -10 45 -56 127 -72 127 -16 0
-16 -4 2 -64 8 -27 15 -61 14 -75 -1 -27 -3 -23 -13 19 -3 14 -21 42 -39 63
-38 42 -74 48 -101 18 -16 -17 -16 -22 -3 -43 8 -12 17 -37 20 -55 5 -26 3
-31 -8 -26 -11 4 -13 1 -9 -11 3 -9 3 -32 -1 -52 -6 -36 -7 -36 -21 -15 -16
22 -92 66 -100 58 -3 -2 8 -19 23 -37 l28 -33 -50 38 c-28 21 -69 46 -93 56
-47 21 -135 25 -176 9 -14 -5 -26 -6 -26 -1 0 16 -32 22 -48 9 -8 -7 -23 -12
-34 -10 -10 2 -21 -4 -24 -12 -3 -9 -10 -13 -15 -10 -15 9 -49 -6 -49 -22 0
-8 -8 -14 -19 -14 -32 0 -42 -22 -26 -54 15 -27 14 -30 -21 -68 -47 -52 -67
-101 -66 -164 1 -101 43 -145 159 -164 43 -6 84 -15 91 -19 8 -5 -2 -21 -33
-51 -49 -48 -56 -65 -25 -57 14 3 20 0 20 -10 0 -14 2 -14 18 0 29 26 36 20
13 -10 -24 -29 -20 -43 5 -22 38 31 -4 -26 -51 -70 -110 -103 -263 -236 -298
-259 -32 -21 -49 -48 -97 -146 -62 -129 -138 -357 -147 -443 -3 -29 -9 -53
-12 -53 -8 0 -37 117 -46 182 -4 30 -11 48 -21 50 -9 2 -42 69 -83 168 -101
246 -230 500 -385 755 -20 33 -36 64 -36 69 0 4 -25 44 -56 88 -40 57 -53 83
-45 91 13 13 -7 47 -116 192 -126 168 -119 160 -135 148 -10 -9 -19 -4 -38 23
-29 38 -40 41 -63 16z m190 -154 c39 -51 86 -118 107 -148 l36 -55 -52 -18
c-113 -39 -306 -97 -325 -97 -11 0 -32 -9 -45 -20 -14 -10 -61 -31 -104 -46
-94 -31 -229 -94 -339 -157 -43 -26 -81 -44 -84 -42 -11 12 376 409 508 520
83 70 205 155 222 155 3 0 38 -42 76 -92z m1728 -28 c65 -32 125 -81 125 -103
0 -7 -43 -41 -96 -76 -53 -34 -126 -92 -162 -128 l-67 -65 65 54 c77 65 182
139 228 161 49 23 39 12 -25 -29 -74 -47 -183 -140 -260 -221 -47 -49 -67 -64
-80 -58 -10 4 -56 13 -102 21 -49 8 -92 21 -104 31 -26 24 -47 75 -47 116 0
38 38 118 76 161 21 24 29 27 43 19 10 -7 24 -8 31 -3 16 10 33 3 25 -10 -6
-10 23 -22 36 -14 5 3 9 14 9 25 0 10 5 19 10 19 6 0 10 -5 10 -11 0 -5 5 -7
10 -4 6 4 8 10 5 15 -3 5 -1 11 5 15 5 3 10 20 10 36 0 17 4 28 10 24 5 -3 12
5 15 18 14 53 130 56 230 7z m199 -223 c-6 -40 -4 -46 27 -71 41 -35 73 -47
121 -48 21 0 38 -4 38 -9 0 -9 -69 -43 -105 -52 -18 -4 -17 -5 3 -6 13 0 33 4
45 10 21 11 21 11 -1 -11 -17 -16 -22 -29 -18 -46 4 -13 5 -24 3 -24 -4 0
-167 56 -189 65 -9 4 -15 12 -12 20 3 8 -5 14 -23 18 -29 5 -48 -2 -25 -10 6
-3 12 -20 12 -39 0 -41 38 -119 82 -170 l32 -36 -34 -29 c-19 -16 -39 -29 -44
-29 -18 0 -56 44 -56 65 0 11 -22 90 -50 175 -27 85 -50 155 -50 157 0 10 145
101 153 96 8 -5 -18 -27 -33 -28 -8 0 -110 -66 -110 -71 0 -7 78 35 85 46 4 6
11 8 16 4 5 -3 15 -1 22 4 7 6 29 13 50 17 21 4 42 16 48 26 15 30 19 23 13
-24z m-404 -402 c7 -9 15 -56 18 -110 l5 -95 -40 0 c-21 0 -43 -4 -49 -9 -5
-5 -20 -12 -34 -16 -22 -7 -23 -6 -11 8 7 9 17 15 21 12 5 -3 6 4 3 15 -5 17
-9 16 -39 -17 -19 -20 -34 -37 -34 -40 0 -2 19 -1 43 3 l42 6 -45 -30 c-47
-30 -224 -102 -251 -102 -9 0 -23 7 -30 16 -11 14 -7 22 31 57 25 22 98 90
163 150 82 76 117 103 117 90 1 -11 7 -4 16 16 27 62 49 76 74 46z m14 -267
c3 -18 12 -82 20 -143 9 -60 24 -143 33 -184 l18 -74 80 -22 c44 -12 79 -24
78 -28 -2 -4 -3 -16 -3 -26 0 -10 -8 -22 -17 -26 -15 -5 -16 -4 -5 6 6 7 12
21 12 30 0 14 -5 16 -27 8 -69 -23 -149 -37 -159 -28 -6 5 -9 20 -7 33 3 13
-4 41 -16 62 -23 45 -28 30 -6 -22 17 -42 13 -54 -21 -54 -34 0 -64 -34 -64
-71 0 -23 10 -42 39 -70 41 -42 78 -50 105 -24 13 13 18 8 49 -52 34 -67 68
-132 181 -347 l58 -108 -34 -32 c-19 -17 -72 -65 -119 -107 -345 -312 -354
-317 -502 -326 -94 -6 -96 -6 -121 22 -14 15 -32 49 -41 76 -15 45 -34 190
-35 265 l0 30 67 -8 c37 -4 70 -4 73 0 3 4 17 41 29 82 30 97 46 127 71 135
36 11 21 97 -21 124 -11 6 -58 15 -105 18 -79 6 -84 7 -84 29 0 12 -5 24 -11
26 -30 10 -5 270 46 484 31 129 47 159 94 173 20 5 63 17 95 26 33 9 81 28
108 41 26 13 49 24 52 24 2 0 7 -26 10 -57 16 -133 46 -246 63 -230 2 3 0 14
-6 25 -19 36 -33 116 -40 229 l-6 112 25 4 c14 2 28 5 32 6 4 0 9 -14 12 -31z
m-464 -141 c0 -7 10 -17 23 -22 12 -6 20 -17 18 -25 -2 -8 -14 -53 -27 -100
-36 -129 -63 -294 -66 -407 -3 -103 -3 -103 -28 -102 -14 1 -18 3 -9 6 13 3
17 24 22 111 6 117 34 275 73 410 24 82 24 87 8 99 -10 7 -21 13 -26 13 -27 0
-108 -214 -139 -365 -23 -115 -50 -307 -44 -314 3 -2 11 2 20 9 9 7 18 10 22
6 3 -3 2 -6 -4 -6 -15 0 -64 -51 -58 -61 3 -4 1 -10 -5 -14 -5 -3 -10 -15 -10
-25 0 -19 1 -19 19 -3 11 9 17 21 14 26 -3 6 -1 7 5 3 6 -3 34 7 62 24 28 16
59 30 68 30 10 1 5 6 -13 15 l-30 14 33 -2 c39 -2 45 -32 8 -41 -30 -7 -141
-72 -157 -92 -6 -8 -15 -14 -20 -14 -13 0 -11 54 3 68 9 9 5 9 -18 2 -16 -5
-99 -21 -184 -35 -265 -44 -390 -75 -630 -155 -96 -32 -200 -61 -231 -65 l-57
-7 -7 32 c-4 17 -5 33 -3 34 9 7 125 49 226 82 61 20 112 40 112 44 0 5 -12 5
-27 0 -44 -13 -193 -66 -252 -90 -30 -11 -57 -17 -62 -13 -12 14 -21 91 -10
97 5 4 29 10 53 15 24 5 113 26 198 46 297 69 373 79 723 91 117 4 138 2 142
-11 3 -8 8 -23 11 -32 4 -10 17 43 31 122 27 164 71 326 120 445 49 120 103
202 103 157z m852 -69 c-34 -38 -82 -153 -88 -215 -4 -33 -1 -84 6 -117 6 -31
9 -60 6 -63 -3 -3 -31 4 -62 16 -51 19 -56 19 -50 4 7 -16 86 -135 209 -313
174 -250 247 -359 247 -367 0 -4 -15 -25 -33 -46 -24 -27 -36 -35 -46 -28 -11
7 -12 13 -3 23 6 8 8 18 4 23 -13 19 -32 15 -48 -10 -12 -18 -25 -25 -48 -25
-71 0 -109 -20 -186 -99 -83 -83 -137 -154 -274 -360 l-89 -133 -101 6 c-56 4
-186 16 -291 27 -104 10 -194 19 -200 19 -5 0 -16 4 -23 9 -11 7 -9 16 12 48
63 95 95 266 65 341 -13 31 -14 28 -10 -54 6 -146 -29 -251 -108 -328 l-37
-36 -135 39 c-73 22 -172 49 -219 61 -108 27 -182 51 -176 57 2 2 21 0 43 -6
21 -6 70 -11 108 -11 39 0 131 -7 206 -16 75 -9 147 -14 161 -11 31 8 48 45
48 106 0 45 -21 90 -54 112 -35 25 -334 16 -516 -16 -103 -17 -182 -52 -175
-75 3 -10 1 -21 -4 -25 -7 -4 -8 1 -4 12 6 17 5 17 -15 -1 -31 -27 -28 -32 26
-40 57 -8 162 -42 188 -61 16 -12 10 -12 -38 1 -32 8 -108 20 -170 27 -103 12
-113 15 -110 33 3 22 42 154 45 154 1 0 67 11 147 25 253 44 332 55 445 61
180 11 272 -13 299 -76 3 -8 4 8 2 35 -6 71 -44 180 -72 206 l-24 22 -92 -22
c-121 -30 -405 -116 -488 -149 -60 -23 -132 -64 -88 -49 56 19 240 47 301 46
l72 -2 -85 -8 c-47 -4 -139 -19 -205 -32 -66 -14 -122 -24 -124 -21 -2 2 3 20
10 41 12 32 23 41 74 61 100 40 103 42 70 36 l-30 -5 26 23 c15 13 53 46 85
73 32 28 69 60 83 73 27 25 153 96 189 107 18 5 34 -4 84 -50 l63 -56 136 7
c77 4 139 3 142 -2 3 -5 11 -72 17 -149 11 -118 17 -149 41 -196 42 -85 76
-116 135 -124 76 -10 83 -13 33 -14 -73 -2 -103 14 -146 77 -60 86 -70 117
-82 243 -6 63 -11 120 -11 127 0 8 -23 12 -75 11 -41 -1 -73 -4 -70 -8 2 -4
-28 -8 -68 -8 -40 -1 -92 -8 -117 -17 l-45 -15 60 7 c93 11 174 5 204 -15 14
-10 30 -16 34 -15 5 1 6 -2 2 -7 -3 -6 4 -29 15 -51 29 -56 55 -164 69 -285
20 -165 19 -162 49 -174 89 -35 249 -32 362 7 68 24 179 91 194 117 6 11 42
63 81 115 90 124 203 238 243 246 17 3 41 18 54 33 63 72 78 95 78 118 0 22
-61 129 -175 308 -17 28 -65 104 -106 169 -41 66 -77 124 -80 128 -7 11 -59
-11 -59 -24 0 -5 4 -7 9 -3 5 3 13 0 17 -6 4 -8 3 -9 -4 -5 -7 4 -12 5 -12 1
0 -3 42 -76 94 -163 51 -86 124 -211 161 -276 l67 -119 -69 -66 c-38 -36 -113
-106 -166 -155 -53 -49 -94 -93 -91 -98 3 -4 0 -7 -8 -6 -7 2 -12 -2 -11 -8 1
-6 -12 -24 -30 -40 l-32 -29 29 33 c17 17 26 32 22 32 -15 0 -126 -102 -121
-110 3 -5 0 -12 -6 -16 -8 -4 -9 -3 -5 4 4 7 3 12 -3 12 -5 0 -13 -4 -16 -10
-3 -5 -12 -10 -18 -10 -7 0 15 25 48 55 33 30 55 54 48 55 -6 0 -14 -4 -18 -9
-3 -5 -24 -24 -48 -42 -23 -17 -3 6 44 52 84 82 79 83 -12 3 -51 -46 -123 -91
-177 -110 -21 -7 -29 -13 -19 -14 9 0 17 -5 17 -10 0 -10 -88 -7 -130 4 -8 2
-27 7 -42 10 -16 4 -28 11 -28 17 0 6 4 8 9 4 5 -3 47 -6 93 -6 138 -1 177 24
472 299 125 117 184 166 198 164 16 -2 18 1 10 10 -44 55 -294 542 -287 561 3
7 39 29 80 50 58 28 76 42 81 63 4 15 3 34 -3 43 -10 16 -100 44 -120 36 -30
-10 -8 18 72 94 62 58 98 84 128 92 23 7 46 16 52 21 21 18 27 6 7 -14z m39
-149 c41 -29 41 -90 0 -146 -28 -39 -76 -83 -91 -83 -11 0 18 172 36 212 9 21
19 38 21 38 3 0 18 -9 34 -21z m-1192 -213 c-2 -2 -58 -5 -124 -8 -74 -3 -103
-2 -75 3 25 4 78 8 119 8 62 1 72 3 67 17 -3 9 -6 20 -6 26 0 13 -270 2 -283
-12 -17 -16 3 -49 31 -52 15 -2 -17 -7 -72 -11 -124 -10 -396 -55 -526 -87
-19 -5 -57 -14 -85 -20 -27 -7 -70 -18 -95 -26 -77 -25 -344 -93 -348 -89 -2
2 -7 20 -12 40 -6 25 -5 37 3 40 7 2 91 25 187 50 523 139 600 153 975 175
105 6 199 12 210 13 15 2 22 -7 29 -31 4 -18 7 -34 5 -36z m-43 -80 l-1 -54
-175 -6 c-184 -6 -491 -24 -550 -31 -19 -3 -75 -9 -125 -15 -101 -12 -194 -30
-303 -59 -44 -11 -75 -15 -78 -9 -8 13 -8 13 86 36 47 11 130 32 185 46 258
67 534 111 850 135 61 4 110 9 111 10 0 0 0 -23 0 -53z m58 -108 c3 -13 6 -26
6 -29 0 -3 -75 -9 -167 -13 -280 -11 -625 -60 -788 -111 -22 -7 -71 -20 -110
-30 -38 -10 -97 -29 -129 -42 -33 -13 -63 -20 -67 -16 -7 8 -49 132 -49 144 0
4 21 11 48 14 26 4 83 15 127 25 119 27 158 33 405 59 110 12 258 19 441 20
l277 1 6 -22z m17 -200 c6 -22 3 -27 -20 -31 -46 -10 -138 -47 -174 -71 -18
-13 -51 -26 -73 -30 -88 -17 -417 -138 -563 -207 -46 -22 -85 -38 -87 -36 -2
2 -6 17 -10 33 -5 25 -2 32 18 41 23 11 22 11 -6 10 -26 -2 -30 3 -43 41 -8
24 -13 44 -12 46 15 11 433 139 504 155 151 33 430 80 449 77 6 -1 13 -14 17
-28z m349 -91 c-2 -29 -14 -32 -128 -32 -148 -1 -306 -29 -297 -54 4 -9 9 -22
12 -28 10 -25 -13 -12 -52 27 -21 22 -36 42 -33 45 29 29 499 69 498 42z m982
-308 c30 -16 13 -23 -23 -10 -53 18 -121 13 -170 -13 -24 -13 -43 -29 -41 -36
1 -6 -2 -9 -7 -6 -13 9 -58 -40 -160 -174 -127 -167 -193 -261 -187 -267 3 -3
27 8 53 24 175 108 346 189 466 220 64 16 240 14 282 -3 20 -8 20 -8 1 21 -37
57 -131 156 -176 187 -29 20 -36 28 -20 23 37 -11 101 -71 180 -169 38 -47 70
-88 70 -90 0 -2 -26 3 -57 12 -84 23 -240 19 -324 -7 -107 -34 -298 -129 -434
-215 -28 -18 -61 -38 -74 -45 -21 -12 -22 -11 -11 9 6 11 15 18 20 15 5 -3 12
0 16 6 5 8 3 9 -6 4 -24 -15 -6 13 120 187 190 262 231 305 324 334 44 14 126
10 158 -7z m-87 -466 c-14 -27 -45 -74 -69 -106 -35 -46 -46 -71 -52 -115 l-7
-57 -12 40 -12 40 -53 -113 c-29 -62 -55 -110 -57 -108 -5 5 40 145 57 176 6
11 8 20 4 20 -7 0 -25 -22 -116 -143 -38 -49 -68 -86 -68 -82 0 21 79 153 117
195 23 26 43 50 43 53 0 7 -137 -31 -165 -45 -20 -10 -20 -10 0 11 11 11 49
36 85 56 l65 35 -62 0 c-35 0 -63 4 -63 10 0 6 15 10 34 10 43 0 75 26 86 70
l8 35 1 -37 c1 -23 10 -47 25 -64 22 -26 25 -27 55 -15 30 13 125 107 158 157
26 41 26 26 -2 -23z m-1738 -191 c22 -16 45 -8 116 40 31 21 57 35 57 30 0 -5
-31 -39 -70 -75 -53 -50 -70 -72 -71 -94 -1 -28 -1 -28 -13 6 l-12 34 -37 -76
c-20 -43 -38 -77 -41 -77 -7 0 34 112 45 125 5 5 9 14 9 19 0 6 -21 -10 -47
-35 -74 -69 -92 -79 -47 -24 23 28 51 59 63 69 36 32 24 36 -41 10 -34 -13
-63 -22 -65 -20 -2 2 14 17 37 32 80 57 80 56 30 48 -52 -7 -50 0 6 20 l39 14
-34 8 -34 7 34 11 c24 8 35 18 38 36 3 16 7 4 13 -35 5 -38 14 -65 25 -73z"/>
<path d="M11719 3322 c-45 -29 -139 -102 -139 -108 0 -2 9 0 20 6 28 15 25 -2
-5 -30 -14 -13 -23 -25 -22 -27 4 -3 70 26 121 52 46 25 41 11 -15 -41 -29
-27 -84 -78 -122 -114 l-69 -65 52 -8 c39 -5 60 -3 83 8 17 9 43 18 57 20 15
3 47 16 71 29 24 13 68 31 96 41 49 15 52 18 42 38 -20 40 -134 217 -139 217
-3 0 -17 -8 -31 -18z"/>
<path d="M13719 2097 c-72 -50 -109 -80 -109 -88 0 -3 16 -9 36 -12 48 -8 64
-23 64 -62 0 -24 -8 -40 -29 -58 l-30 -25 31 -6 c17 -3 34 -6 38 -6 4 0 10 44
13 98 3 57 11 113 21 135 10 22 16 43 14 47 -2 5 -24 -6 -49 -23z"/>
<path d="M12462 1269 c-14 -5 -20 -13 -16 -20 4 -8 3 -9 -4 -5 -25 15 -221
-122 -207 -144 3 -5 0 -7 -8 -4 -8 3 -20 -3 -28 -12 -12 -15 -12 -16 6 -11 20
6 163 39 322 74 l83 18 -54 58 c-56 60 -58 61 -94 46z"/>
<path d="M16900 3379 c-1 -294 -12 -534 -26 -556 -17 -27 -84 -63 -115 -63
-12 0 -20 -3 -16 -6 13 -14 79 9 112 38 l35 30 0 -101 c0 -64 -4 -101 -11
-101 -5 0 -7 -5 -3 -12 4 -6 -8 0 -28 15 -19 15 -49 30 -65 33 -28 6 -34 2
-62 -36 l-30 -41 -26 39 c-27 41 -41 100 -28 118 14 19 77 4 113 -28 l35 -30
-33 22 c-19 12 -49 26 -67 30 -29 7 -35 5 -40 -11 -8 -25 11 -82 34 -103 16
-15 19 -14 31 9 7 13 28 31 47 40 33 16 36 16 56 -2 12 -10 31 -25 42 -33 l20
-15 -20 24 c-40 47 -132 109 -171 117 -21 3 -48 11 -59 17 -37 18 -84 70 -96
105 -10 31 -9 36 16 62 15 16 40 34 56 41 17 6 28 14 25 16 -8 8 -50 -19 -98
-63 -61 -57 -72 -57 -65 1 11 80 54 142 122 178 17 9 25 16 19 17 -23 0 -98
-59 -114 -91 l-17 -32 -19 27 c-20 32 -23 104 -5 159 13 38 76 102 116 117 46
18 144 23 190 10 54 -15 89 -48 109 -103 12 -30 14 -33 10 -12 -17 90 -71 127
-194 133 -97 5 -112 -1 -183 -67 -54 -50 -70 -86 -71 -156 -1 -46 4 -67 20
-90 15 -21 19 -36 13 -50 -12 -30 -11 -93 2 -101 6 -3 18 1 27 10 15 14 18 12
41 -32 15 -26 43 -58 63 -71 20 -13 34 -29 32 -35 -3 -7 -40 -20 -82 -30 -148
-33 -163 -49 -160 -163 l1 -68 6 76 c8 98 20 112 114 133 40 9 82 19 95 22 19
6 22 3 22 -23 0 -28 46 -113 68 -127 6 -4 26 7 45 24 l34 30 49 -17 c73 -24
77 -29 70 -93 -3 -30 -6 -182 -7 -337 -1 -156 -6 -283 -10 -283 -4 0 -10 12
-13 26 -4 15 -9 24 -13 21 -3 -3 2 -20 10 -37 15 -29 15 -31 -1 -36 -50 -16
-97 -41 -123 -65 l-29 -27 -50 63 c-68 86 -100 144 -100 184 0 61 94 131 177
131 22 0 53 -24 53 -41 0 -5 5 -9 10 -9 17 0 11 90 -7 121 -10 16 -21 29 -25
29 -4 0 -8 18 -8 39 0 52 -33 154 -71 219 -40 71 -47 61 -10 -14 16 -32 36
-90 45 -129 9 -38 19 -77 21 -85 4 -13 -5 -16 -48 -16 -69 -1 -118 -18 -171
-59 l-42 -32 -17 66 c-34 138 -66 245 -67 225 0 -11 16 -76 35 -145 37 -129
40 -150 29 -212 -7 -43 12 -81 51 -99 14 -6 38 -35 54 -63 16 -29 52 -79 79
-112 47 -57 50 -62 45 -106 -6 -52 12 -91 47 -102 14 -4 19 -12 16 -21 -12
-31 -27 -148 -30 -237 -7 -181 25 -267 129 -350 49 -39 158 -97 183 -97 6 0
12 -11 12 -25 0 -14 9 -34 20 -45 l20 -20 -37 -38 c-21 -20 -47 -56 -57 -80
-20 -45 -21 -41 19 -113 5 -10 20 -22 33 -28 32 -15 116 -14 155 3 69 29 126
118 143 226 7 42 13 47 31 29 8 -8 17 5 32 45 12 31 21 65 21 76 0 31 -118
170 -144 170 -29 0 -172 145 -182 184 -7 31 18 105 44 129 12 11 37 15 92 14
l74 -2 36 -48 c20 -26 75 -116 123 -200 62 -110 92 -173 105 -227 20 -79 34
-111 82 -186 52 -82 159 -337 153 -365 -5 -30 15 -75 46 -103 12 -11 21 -31
21 -46 0 -15 11 -44 25 -64 14 -20 27 -47 31 -61 13 -51 122 -71 199 -36 36
16 125 102 125 121 0 4 -10 19 -21 34 -12 15 -20 28 -18 29 2 1 38 20 79 41
85 45 116 76 159 161 42 85 64 192 59 285 -6 101 -30 150 -84 169 -36 13 -43
12 -92 -9 -34 -15 -70 -42 -103 -78 -27 -30 -51 -53 -53 -51 -2 2 -47 76 -101
164 -102 165 -235 415 -235 441 0 13 18 15 110 13 l111 -2 37 36 c31 30 40 34
56 25 14 -8 17 -7 12 1 -4 6 -3 11 3 11 5 0 17 3 27 7 12 4 15 3 10 -5 -12
-19 7 -14 49 14 123 82 181 182 140 241 -14 20 -13 24 10 51 l25 30 -10 158
c-13 226 -29 508 -35 654 -3 69 -10 190 -15 270 -5 80 -12 213 -15 295 -9 219
-10 223 -51 230 -80 12 -105 14 -229 20 -264 11 -389 14 -777 21 l-398 7 0
-114z m810 66 c7 -9 9 -26 5 -45 l-7 -30 -104 0 -104 0 0 45 0 45 99 0 c74 0
102 -4 111 -15z m109 -258 c18 -9 24 -22 26 -57 2 -24 0 -38 -4 -31 -6 9 -10
7 -13 -7 -3 -11 -2 -26 3 -33 7 -11 9 -10 9 4 0 15 3 16 21 6 38 -20 109 -91
102 -102 -3 -5 -1 -7 4 -4 14 9 37 -19 27 -34 -4 -7 -3 -9 3 -6 24 15 73 -125
73 -208 0 -311 -330 -516 -613 -380 -29 14 -68 39 -87 56 -19 17 -29 27 -21
23 9 -5 12 -3 7 5 -4 6 -11 9 -16 6 -12 -7 -41 36 -33 48 3 6 1 7 -5 3 -28
-17 -96 178 -88 253 9 89 73 240 96 226 4 -3 6 4 3 15 -4 15 0 20 13 20 11 0
28 3 40 6 18 5 23 -3 42 -58 22 -68 62 -263 62 -303 0 -14 11 -32 26 -44 23
-18 39 -21 108 -19 l81 1 -80 7 c-44 3 -88 10 -98 14 -20 9 -20 12 -41 166
-22 157 -43 229 -73 243 -33 15 -29 24 23 57 70 44 139 64 227 64 68 1 78 3
83 21 16 50 49 65 93 42z m-61 -1274 c2 -32 -14 -85 -73 -240 -46 -119 -85
-205 -97 -216 -18 -15 -31 -17 -72 -12 -28 4 -53 9 -55 11 -2 2 18 98 44 214
30 137 44 221 40 240 -4 16 -4 34 0 40 4 7 45 10 108 8 l102 -3 3 -42z m-874
-78 c8 -30 1 -45 -19 -45 -19 0 -95 -73 -95 -91 0 -8 9 0 20 18 24 40 101 80
166 87 166 18 184 18 184 -2 0 -26 -30 -51 -76 -64 -38 -12 -38 -12 49 -20 48
-4 100 -14 117 -23 29 -15 80 -73 80 -92 0 -20 -35 -41 -55 -33 -11 5 -51 8
-90 8 -86 0 -51 -15 40 -17 87 -1 57 -18 -55 -31 -176 -20 -299 15 -359 100
-13 19 -21 27 -18 18 9 -26 -31 -23 -60 4 -39 36 -32 83 21 134 35 34 101 69
137 73 4 1 10 -10 13 -24z m1504 -90 c7 -14 12 -34 12 -44 0 -31 -56 -106
-109 -145 -49 -37 -54 -38 -141 -39 -76 -1 -93 2 -117 19 -36 27 -39 44 -12
77 30 40 71 57 167 73 81 13 172 52 172 74 0 19 17 10 28 -15z m-1472 -217
c34 -9 46 -18 53 -40 12 -33 45 -48 107 -48 l44 0 -20 -40 c-22 -44 -26 -90
-9 -123 6 -12 45 -56 86 -98 61 -63 75 -83 79 -115 7 -50 -20 -101 -67 -126
-134 -75 -454 118 -448 269 1 21 3 16 10 -16 29 -151 305 -310 428 -247 36 19
71 70 71 104 0 34 -24 75 -66 111 l-37 33 -22 -28 c-28 -35 -48 -25 -33 17 6
16 12 28 14 26 3 -2 0 -16 -6 -31 -8 -21 -7 -27 2 -24 7 3 17 16 22 30 7 20 5
30 -12 49 -12 12 -22 28 -22 33 0 6 -8 -3 -19 -19 -19 -32 -76 -85 -91 -85
-23 0 -19 25 9 48 17 15 37 41 46 57 11 21 15 25 15 11 0 -10 -18 -36 -40 -59
-44 -43 -46 -60 -5 -33 44 29 85 116 55 116 -6 0 -7 7 -1 18 4 9 13 31 18 47
6 17 14 38 18 48 6 15 1 17 -37 17 -47 0 -85 20 -97 52 -4 11 -31 29 -66 43
-32 14 -73 39 -90 56 -29 30 -28 30 19 -5 27 -20 68 -42 92 -48z m948 -203
c42 -91 173 -320 275 -482 18 -28 31 -56 28 -60 -3 -5 -37 -22 -74 -36 -53
-21 -84 -42 -138 -95 -37 -37 -85 -93 -105 -124 l-37 -56 -17 35 c-9 20 -15
37 -13 40 2 2 10 -10 17 -26 l12 -30 40 59 c60 91 157 174 239 206 43 17 68
32 65 40 -2 6 -38 65 -78 130 -102 164 -170 285 -223 397 l-45 95 -127 1 c-70
1 -129 4 -132 6 -2 3 56 5 130 5 l134 0 49 -105z m-562 -232 c46 -41 3 -202
-64 -243 -63 -38 -170 -20 -176 31 -3 23 0 25 33 21 60 -7 123 23 156 76 30
48 36 81 19 113 -14 24 6 26 32 2z m1144 -168 c47 -33 63 -205 30 -320 -25
-83 -85 -195 -112 -207 -37 -17 -269 20 -302 48 -2 1 10 49 28 106 42 137 100
255 150 307 69 71 159 100 206 66z m-354 -243 c-107 -125 -183 -244 -216 -341
l-12 -34 -24 33 c-14 20 -23 47 -23 65 2 86 149 265 258 316 33 16 64 28 68
29 4 0 -18 -31 -51 -68z m19 -267 c24 -8 87 -21 138 -28 l94 -12 -60 -33 c-45
-24 -74 -32 -111 -32 -65 0 -154 21 -149 34 2 6 10 28 18 49 7 20 16 37 19 37
4 0 26 -7 51 -15z m-27 -170 c27 -8 71 -15 98 -15 26 0 48 -3 48 -8 0 -19 -64
-82 -103 -101 -79 -38 -177 -20 -177 33 0 24 58 106 75 106 5 0 32 -7 59 -15z"/>
<path d="M17755 3176 c-10 -7 -18 -26 -19 -43 0 -17 -4 -29 -8 -26 -5 2 -8 0
-8 -6 0 -5 5 -13 10 -16 19 -12 10 -53 -15 -73 -19 -15 -45 -59 -45 -76 0 -5
64 -5 87 0 12 2 25 16 31 33 9 27 8 30 -11 33 -19 3 -22 9 -21 45 0 25 -3 40
-9 36 -6 -3 -7 -2 -4 3 3 6 18 10 34 9 33 -1 43 10 43 48 0 20 4 26 13 21 8
-5 9 -4 2 3 -18 18 -61 23 -80 9z"/>
<path d="M4115 3148 c-16 -5 -41 -9 -55 -8 -44 2 -234 -43 -247 -59 -19 -22
-16 -75 5 -100 17 -21 18 -21 87 -5 39 8 89 21 113 29 51 15 54 5 7 -31 -29
-22 -33 -29 -24 -45 15 -29 36 -23 48 14 13 39 74 101 113 116 37 14 50 41 35
72 -14 27 -38 32 -82 17z"/>
<path d="M2004 2849 c-16 -5 -40 -19 -52 -32 l-22 -23 28 -45 c44 -69 89 -116
159 -166 72 -51 153 -86 193 -81 18 2 40 -8 67 -30 75 -59 148 -86 253 -93 52
-3 82 -6 66 -7 -16 -1 -62 -22 -103 -47 l-74 -45 -142 3 c-78 2 -153 0 -167
-4 -14 -4 150 -7 363 -8 l389 -1 -4 60 -3 60 97 0 97 0 17 32 c21 40 14 115
-16 187 -28 65 -42 73 -94 55 -109 -39 -285 -53 -417 -34 -127 18 -428 129
-479 176 -26 24 -91 55 -112 53 -7 0 -27 -5 -44 -10z"/>
<path d="M1040 2483 c0 -202 6 -229 50 -249 14 -7 114 -15 233 -19 l207 -7 0
26 0 26 -198 0 c-163 0 -201 3 -220 16 -21 15 -22 20 -22 205 l0 189 -25 0
-25 0 0 -187z"/>
<path d="M1174 2625 c-12 -29 2 -273 16 -289 8 -11 9 -16 1 -16 -6 0 -11 -9
-11 -20 0 -20 7 -20 314 -20 173 0 321 -3 330 -6 12 -5 16 0 16 17 l0 24 -192
0 -193 -1 185 3 c159 3 187 6 198 20 8 11 12 59 12 150 0 98 -3 135 -12 138
-7 2 -158 6 -336 10 -292 6 -323 5 -328 -10z"/>
<path d="M8005 2620 c21 -116 39 -167 78 -228 24 -37 51 -73 61 -81 19 -16
163 -22 206 -9 14 4 41 9 60 11 22 2 36 9 38 19 3 14 -3 15 -35 7 -21 -5 -84
-9 -140 -9 -88 0 -105 3 -120 19 -15 17 -108 194 -142 271 l-10 25 4 -25z"/>
<path d="M4443 2620 c19 -63 43 -120 50 -120 22 0 210 -431 194 -446 -2 -2
-16 33 -32 78 -39 117 -116 279 -128 271 -5 -3 -7 -2 -4 4 4 6 -3 27 -13 49
-11 21 -20 36 -20 34 0 -3 14 -58 30 -124 47 -185 63 -335 56 -511 -3 -82 -11
-172 -18 -200 -6 -27 -11 -62 -12 -77 -1 -14 -5 -24 -10 -20 -5 3 -7 -5 -4
-16 4 -14 2 -20 -5 -15 -6 4 -8 -2 -5 -15 4 -12 3 -20 -2 -17 -4 2 -18 -23
-30 -58 -12 -34 -47 -110 -76 -168 -29 -59 -51 -109 -47 -112 3 -3 32 49 65
116 33 67 71 136 84 154 29 38 32 58 4 24 -11 -13 -20 -19 -20 -14 0 13 35 44
42 38 7 -8 64 68 60 80 -2 5 -1 7 3 3 7 -7 120 80 120 93 0 4 4 11 9 16 5 5 6
3 2 -4 -4 -7 -6 -13 -4 -13 10 2 162 79 155 80 -5 0 -17 -4 -27 -10 -12 -6
-29 -6 -52 2 -54 18 -51 23 15 26 34 2 65 9 69 15 20 32 22 199 3 249 -4 9
-24 18 -48 21 -23 3 -65 11 -93 17 l-50 11 -23 72 c-13 40 -49 126 -80 192
-57 118 -167 325 -158 295z"/>
<path d="M7433 2383 c-7 -3 -13 -16 -13 -29 0 -22 13 -30 42 -25 4 0 6 -7 6
-17 -1 -9 2 -51 6 -93 l7 -76 -30 -6 c-24 -5 -28 -10 -24 -27 3 -11 14 -20 24
-20 15 0 19 -8 20 -32 l1 -33 9 30 c5 17 14 66 19 110 19 153 15 144 59 133
27 -7 63 -5 127 6 l89 15 -133 -5 c-129 -4 -134 -3 -155 19 -12 13 -26 30 -32
39 -5 9 -16 14 -22 11z"/>
<path d="M8302 2250 c-23 -10 -42 -45 -40 -77 1 -10 -2 -28 -6 -40 -6 -20 -5
-21 18 -10 20 10 23 17 19 43 -3 19 0 36 9 45 8 8 17 21 21 29 4 12 6 12 6 -1
1 -9 -6 -22 -14 -29 -10 -8 -14 -27 -12 -55 2 -33 11 -52 42 -86 22 -24 44
-44 50 -44 32 -1 85 -65 85 -103 0 -10 16 -49 35 -85 19 -36 35 -77 35 -90 0
-32 15 -43 69 -50 35 -4 50 -1 69 14 14 10 34 18 46 18 20 -1 20 -2 1 -6 -11
-3 -31 -13 -45 -23 -19 -13 -37 -16 -77 -13 -58 6 -75 20 -75 59 0 15 -18 61
-39 103 -22 42 -37 81 -35 88 3 6 -2 14 -10 17 -8 3 -13 11 -12 18 2 7 -11 19
-28 28 -17 9 -49 34 -71 57 -30 31 -46 40 -62 36 -25 -6 -26 -19 -4 -75 21
-56 29 -64 48 -48 12 10 21 10 39 2 19 -8 37 -43 81 -159 32 -81 74 -191 95
-243 20 -52 47 -136 60 -186 l22 -91 -37 -114 c-58 -181 -96 -290 -122 -348
-13 -30 -21 -56 -19 -58 2 -3 23 -7 45 -10 23 -3 41 -10 41 -15 0 -6 -7 -7
-16 -4 -9 3 -32 8 -52 11 -34 5 -39 3 -65 -35 -34 -50 -57 -59 -138 -54 -51 3
-58 2 -34 -6 69 -22 139 -23 210 -1 54 17 70 19 77 9 4 -7 6 -19 3 -26 -8 -22
23 -166 48 -222 34 -75 110 -174 162 -210 48 -33 197 -80 254 -80 22 0 68 16
117 39 92 45 141 93 183 181 24 50 26 66 26 175 0 136 -20 208 -81 299 -54 81
-134 158 -158 152 -15 -3 -44 15 -106 70 -86 74 -221 154 -262 154 -21 0 -21
0 -2 15 10 8 27 15 37 15 9 0 17 4 17 9 0 6 12 6 31 -1 35 -12 47 -5 29 17
-11 13 -9 15 11 15 13 0 31 5 39 10 24 16 -6 30 -62 30 l-47 0 25 37 c24 36
30 83 13 108 -8 13 -18 76 -30 205 -5 58 -12 124 -15 147 l-6 41 -43 -1 c-37
-2 -49 3 -77 30 -37 36 -84 122 -94 171 -5 24 -12 32 -27 32 -16 0 -18 3 -10
11 6 6 23 12 37 12 l25 0 -26 39 c-32 47 -119 107 -165 113 -18 3 -43 0 -56
-5z m562 -1431 c82 -23 163 -129 187 -246 26 -126 -33 -247 -128 -260 -68 -9
-107 4 -162 53 -69 62 -103 135 -109 233 -5 93 16 154 69 194 50 37 82 43 143
26z"/>
<path d="M7990 2015 c-37 -28 -109 -53 -140 -48 -45 6 -189 9 -170 3 14 -4 42
-8 63 -9 80 -2 137 -41 212 -146 47 -66 75 -140 75 -195 0 -35 1 -36 30 -32
l30 4 1 -93 c0 -52 2 -103 5 -114 13 -61 10 -153 -6 -194 -14 -37 -18 -41 -22
-23 -4 12 -2 22 3 22 12 0 11 57 -1 65 -6 4 -10 -8 -10 -27 0 -19 -6 -40 -12
-47 -11 -11 -10 -12 0 -7 10 6 11 1 6 -18 -6 -25 -2 -28 55 -53 35 -15 63 -34
67 -45 7 -23 -41 -150 -65 -172 -26 -23 -98 -23 -152 1 -70 31 -199 125 -205
151 -5 16 -14 22 -34 22 -16 0 -31 4 -34 8 -3 5 -38 14 -78 21 -97 18 -173 49
-251 105 -69 49 -223 126 -294 147 -24 7 -43 16 -43 20 0 8 95 -25 183 -64 32
-15 96 -51 142 -81 121 -79 139 -87 250 -113 55 -13 110 -26 121 -29 20 -5 23
0 33 58 26 154 14 209 -75 334 -120 170 -282 246 -425 199 -72 -24 -105 -49
-130 -97 -11 -22 -23 -37 -26 -34 -3 3 0 12 7 21 7 8 10 15 6 15 -3 0 3 15 14
33 25 41 25 50 0 37 -11 -6 -29 -27 -39 -48 -12 -21 -20 -30 -21 -20 0 9 -4
19 -8 22 -5 3 -8 -5 -8 -16 1 -30 -56 -45 -90 -23 -20 13 -23 13 -18 0 8 -20
63 -29 98 -15 38 14 42 7 17 -28 -27 -39 -44 -82 -42 -109 0 -13 -5 -23 -11
-23 -9 0 -9 -3 0 -12 7 -7 9 -27 5 -53 -6 -45 9 -85 31 -85 8 0 28 15 46 33
20 19 31 25 27 14 -9 -23 15 -32 45 -16 l23 12 -21 -24 c-24 -27 -47 -87 -38
-100 3 -5 11 -9 19 -9 7 0 45 -13 83 -30 82 -35 93 -37 61 -12 -28 24 -20 55
13 50 19 -2 23 -9 24 -43 0 -22 5 -40 10 -39 16 2 54 16 54 21 0 16 -40 58
-67 69 -43 19 -46 18 -77 -12 -20 -21 -26 -23 -26 -10 0 24 60 58 90 50 33 -7
67 -40 91 -86 22 -43 24 -63 7 -51 -15 9 -48 15 -48 8 0 -2 13 -11 29 -19 25
-13 30 -23 35 -70 4 -30 16 -66 27 -80 19 -24 93 -55 133 -57 19 0 19 -1 -3
-10 -34 -13 -100 -13 -135 0 -24 10 -32 9 -50 -7 -32 -29 -54 -33 -91 -17 -35
14 -95 93 -95 124 -1 14 -110 98 -110 85 0 -21 34 -130 55 -177 51 -117 133
-173 250 -171 47 0 69 6 101 26 48 31 85 73 103 117 8 17 17 31 21 31 4 0 39
-13 79 -29 39 -17 71 -27 71 -23 0 4 -19 20 -43 37 -61 43 -195 173 -228 222
-17 24 -26 48 -23 57 5 14 9 14 33 -3 52 -36 389 -210 551 -283 41 -19 81 -42
89 -52 8 -9 28 -27 45 -38 28 -20 29 -20 15 -2 -9 10 -28 40 -43 67 -15 26
-31 47 -36 47 -6 0 -10 4 -10 9 0 5 8 7 19 4 16 -4 20 5 30 69 6 40 16 98 21
127 5 30 7 57 5 60 -3 2 -5 -4 -5 -15 0 -14 -6 -10 -22 16 -20 32 -22 53 -30
280 -4 134 -13 259 -19 278 -6 18 -51 76 -100 128 -110 117 -112 127 -33 201
31 30 55 55 53 58 -2 2 -24 -12 -49 -30z m-557 -406 c12 -7 28 -21 37 -32 9
-11 27 -21 41 -22 48 -3 219 -259 232 -347 6 -37 5 -37 -16 -24 -12 7 -43 19
-69 26 -52 14 -91 46 -67 54 8 3 25 7 39 8 23 3 18 11 -64 95 -49 50 -96 103
-103 117 -15 29 -70 60 -147 83 -28 9 -45 18 -39 20 18 6 112 -23 151 -47 18
-11 41 -34 50 -51 9 -17 57 -71 106 -120 71 -71 86 -91 77 -102 -7 -9 -22 -12
-39 -9 -45 8 -13 -15 51 -36 56 -19 57 -19 57 0 0 56 -160 291 -215 317 -17 7
-41 24 -55 36 -14 12 -34 27 -45 33 -11 6 -16 12 -12 12 5 0 18 -5 30 -11z"/>
<path d="M7459 1935 l-4 -70 -71 -3 c-65 -3 -71 -5 -87 -31 -16 -27 -15 -29 1
-44 16 -14 392 -157 414 -157 5 0 -12 17 -39 37 -26 20 -73 56 -104 80 -66 49
-88 94 -99 193 l-7 65 -4 -70z"/>
<path d="M452 1779 c-90 -55 -121 -69 -152 -69 l-40 0 0 -41 c0 -36 2 -40 20
-34 19 6 20 2 20 -84 l0 -91 55 0 c30 0 55 5 55 10 0 6 -20 10 -44 10 l-43 0
-7 46 c-3 26 -6 59 -6 74 0 36 27 48 39 17 29 -73 62 -137 71 -137 5 0 10 2
10 4 0 13 -81 175 -90 179 -6 3 -5 5 2 3 7 -1 31 -39 53 -84 l40 -82 45 57
c57 73 62 86 19 48 l-34 -30 29 32 c16 18 32 31 36 30 11 -4 112 92 106 101
-3 5 7 20 22 33 l27 24 -24 -27 c-31 -35 -13 -37 19 -3 13 14 20 25 16 25 -5
0 -3 7 4 15 11 13 3 15 -60 15 -68 0 -77 -3 -147 -45 -42 -26 -77 -44 -80 -42
-2 3 32 25 75 51 l79 46 101 0 c56 0 104 4 107 10 4 6 -32 10 -102 9 l-108 -1
-113 -69z"/>
<path d="M5125 1780 c-42 -6 -36 -7 45 -9 52 -1 124 -8 159 -16 36 -9 71 -13
78 -10 8 2 11 1 8 -4 -7 -12 31 -24 46 -15 8 5 9 3 4 -6 -6 -10 -4 -12 9 -7 9
4 15 3 12 -2 -7 -11 22 -23 35 -15 5 3 8 0 7 -8 -2 -7 5 -12 14 -12 10 1 16
-2 13 -6 -7 -11 43 -42 56 -35 5 4 8 2 7 -3 -2 -5 35 -49 82 -98 46 -49 75
-75 63 -59 -12 17 -40 48 -62 69 -37 36 -40 43 -35 77 8 51 -11 102 -52 139
l-35 30 -202 -2 c-111 0 -224 -4 -252 -8z"/>
<path d="M8871 1279 c-13 -11 -29 -19 -36 -19 -7 0 -12 -8 -11 -17 1 -15 -8
-18 -46 -18 -26 -1 -50 -4 -54 -8 -4 -4 23 -20 60 -37 36 -17 83 -45 104 -63
20 -18 58 -50 84 -70 26 -21 54 -44 62 -52 8 -8 21 -12 29 -9 9 3 24 1 35 -5
14 -7 22 -7 24 -1 3 10 22 16 81 27 15 3 27 8 25 12 -2 3 -10 23 -18 44 -8 20
-18 37 -22 37 -4 0 -8 4 -8 10 0 12 -68 80 -80 80 -6 0 -10 4 -10 8 0 5 -18
17 -40 27 -22 10 -40 22 -40 27 0 4 -3 7 -7 6 -8 -3 -64 17 -93 32 -10 5 -24
1 -39 -11z"/>
<path d="M5410 1259 c-283 -27 -396 -67 -611 -221 -140 -100 -171 -118 -259
-149 l-75 -27 -8 -48 c-18 -104 23 -287 90 -401 40 -69 146 -177 216 -221 135
-84 225 -107 393 -100 132 6 205 27 311 89 73 43 188 158 231 231 112 190 122
428 26 628 -37 77 -122 193 -152 205 -15 7 -14 9 8 15 33 11 -56 10 -170 -1z
m-145 -158 c158 -70 242 -204 233 -371 -15 -268 -301 -433 -544 -315 -62 31
-148 119 -176 181 -90 204 14 441 225 516 71 25 192 20 262 -11z"/>
<path d="M5024 1028 c-59 -19 -127 -80 -159 -143 -26 -50 -30 -69 -29 -134 0
-87 27 -152 86 -208 111 -107 296 -105 405 4 55 55 76 105 81 191 5 91 -14
148 -72 210 -59 64 -124 92 -211 91 -38 -1 -84 -6 -101 -11z m167 -207 c39
-40 40 -89 1 -132 -21 -24 -36 -31 -64 -31 -66 0 -100 34 -100 100 0 28 7 43
31 64 43 39 92 38 132 -1z"/>
<path d="M510 870 c12 -23 60 -50 88 -50 24 0 54 -68 77 -174 49 -223 230
-419 450 -489 101 -32 299 -32 400 0 197 63 367 230 435 427 18 54 37 156 29
156 -2 1 -68 3 -145 6 l-141 6 -7 -35 c-11 -59 -64 -153 -112 -197 -25 -23
-71 -54 -102 -68 -50 -24 -70 -27 -157 -27 -84 0 -108 4 -152 24 -29 13 -53
28 -53 33 0 5 4 7 9 4 4 -3 23 -1 42 5 19 6 77 12 129 13 70 2 107 8 141 23
85 38 168 144 169 214 0 23 -5 28 -37 34 -27 5 -33 9 -22 16 8 5 26 9 42 9 19
0 27 5 27 18 0 9 7 26 15 36 8 11 15 24 15 28 0 5 -259 8 -575 8 -568 -1 -575
-1 -565 -20z"/>
<path d="M1697 848 c2 -24 6 -49 9 -55 5 -17 185 -18 201 -2 6 6 26 14 45 18
30 6 33 10 33 41 l0 35 -147 3 -146 3 5 -43z"/>
</g>
</svg>
