<?xml version="1.0" encoding="UTF-8"?>
<svg xmlns="http://www.w3.org/2000/svg" xmlns:xlink="http://www.w3.org/1999/xlink" width="566.929pt" height="566.929pt" viewBox="0 0 566.929 566.929" version="1.1">
<defs>
<filter id="alpha" filterUnits="objectBoundingBox" x="0%" y="0%" width="100%" height="100%">
  <feColorMatrix type="matrix" in="SourceGraphic" values="0 0 0 0 1 0 0 0 0 1 0 0 0 0 1 0 0 0 1 0"/>
</filter>
<mask id="mask0">
  <g filter="url(#alpha)">
<rect x="0" y="0" width="566.929" height="566.929" style="fill:rgb(0%,0%,0%);fill-opacity:0.5;stroke:none;"/>
  </g>
</mask>
<clipPath id="clip2">
  <path d="M 8 7 L 105 7 L 105 154 L 8 154 Z M 8 7 "/>
</clipPath>
<clipPath id="clip3">
  <path d="M 0.347656 142.199219 L 69.253906 161.085938 L 108.199219 19.042969 L 39.289063 0.148438 Z M 0.347656 142.199219 "/>
</clipPath>
<clipPath id="clip4">
  <path d="M 0.347656 0.148438 L 108.199219 0.148438 L 108.199219 161.085938 L 0.347656 161.085938 Z M 0.347656 0.148438 "/>
</clipPath>
<clipPath id="clip5">
  <path d="M 0.347656 142.199219 L 69.253906 161.085938 L 108.199219 19.042969 L 39.289063 0.148438 Z M 0.347656 142.199219 "/>
</clipPath>
<clipPath id="clip1">
  <rect width="109" height="162"/>
</clipPath>
<g id="surface7" clip-path="url(#clip1)">
<g clip-path="url(#clip2)" clip-rule="nonzero">
<g clip-path="url(#clip3)" clip-rule="nonzero">
<path style=" stroke:none;fill-rule:nonzero;fill:rgb(25.201416%,72.608948%,23.46344%);fill-opacity:1;" d="M 38.367188 8.113281 L 9.285156 114.179688 C 5.171875 129.183594 12.914063 144.382813 26.570313 148.128906 L 43.660156 152.8125 C 57.324219 156.5625 71.734375 147.429688 75.847656 132.429688 L 104.925781 26.363281 C 73.03125 1.96875 38.367188 8.113281 38.367188 8.113281 "/>
</g>
</g>
<g clip-path="url(#clip4)" clip-rule="nonzero">
<g clip-path="url(#clip5)" clip-rule="nonzero">
<path style="fill:none;stroke-width:1;stroke-linecap:butt;stroke-linejoin:miter;stroke:rgb(0%,65.098572%,31.369019%);stroke-opacity:1;stroke-miterlimit:10;" d="M 0.0009875 -0.00068125 L -29.081044 -106.067088 C -33.194325 -121.070994 -25.452137 -136.270213 -11.795887 -140.016306 L 5.293956 -144.6999 C 18.958019 -148.4499 33.368175 -139.317088 37.481456 -124.317088 L 66.559581 -18.250681 C 34.66505 6.14385 0.0009875 -0.00068125 0.0009875 -0.00068125 Z M 0.0009875 -0.00068125 " transform="matrix(1,0,0,-1,38.3662,8.1126)"/>
</g>
</g>
</g>
<mask id="mask1">
  <g filter="url(#alpha)">
<rect x="0" y="0" width="566.929" height="566.929" style="fill:rgb(0%,0%,0%);fill-opacity:0.5;stroke:none;"/>
  </g>
</mask>
<clipPath id="clip7">
  <path d="M 5 0.765625 L 40 0.765625 L 40 146 L 5 146 Z M 5 0.765625 "/>
</clipPath>
<clipPath id="clip8">
  <path d="M 0.703125 143.589844 L 16.25 147.480469 L 52.007813 4.65625 L 36.460938 0.765625 Z M 0.703125 143.589844 "/>
</clipPath>
<clipPath id="clip6">
  <rect width="53" height="148"/>
</clipPath>
<g id="surface6" clip-path="url(#clip6)">
<g clip-path="url(#clip7)" clip-rule="nonzero">
<g clip-path="url(#clip8)" clip-rule="nonzero">
<path style=" stroke:none;fill-rule:nonzero;fill:rgb(100%,100%,100%);fill-opacity:1;" d="M 36.460938 0.765625 C 36.460938 0.765625 47.746094 4.398438 29.792969 77.863281 C 29.792969 77.863281 35.136719 91.449219 13.898438 141.359375 L 8.480469 145.535156 L 5.121094 141.496094 C 5.121094 141.496094 26.3125 119.738281 25.984375 75.621094 C 25.984375 75.621094 42.496094 13.945313 36.460938 0.765625 "/>
</g>
</g>
</g>
</defs>
<g id="surface1">


<path style=" stroke:none;fill-rule:nonzero;fill:rgb(100%,100%,100%);fill-opacity:1;" d="M 488.097656 265.792969 C 488.097656 374.058594 398.5625 461.828125 288.113281 461.828125 C 177.667969 461.828125 88.132813 374.058594 88.132813 265.792969 C 88.132813 157.519531 177.667969 69.75 288.113281 69.75 C 398.5625 69.75 488.097656 157.519531 488.097656 265.792969 "/>
<path style=" stroke:none;fill-rule:nonzero;fill:rgb(25%,72.549438%,23.526001%);fill-opacity:1;" d="M 288.109375 77.203125 C 181.953125 77.203125 95.582031 161.804688 95.582031 265.792969 C 95.582031 369.777344 181.953125 454.375 288.109375 454.375 C 394.273438 454.375 480.644531 369.777344 480.644531 265.792969 C 480.644531 161.804688 394.273438 77.203125 288.109375 77.203125 M 288.109375 469.28125 C 173.734375 469.28125 80.679688 377.996094 80.679688 265.792969 C 80.679688 153.585938 173.734375 62.300781 288.109375 62.300781 C 402.492188 62.300781 495.546875 153.585938 495.546875 265.792969 C 495.546875 377.996094 402.492188 469.28125 288.109375 469.28125 "/>
<path style=" stroke:none;fill-rule:nonzero;fill:rgb(0%,65.098572%,31.369019%);fill-opacity:1;" d="M 110.027344 127.582031 C 110.027344 127.582031 137.722656 95.636719 178.007813 123.53125 C 178.007813 123.53125 202.804688 173.121094 212.109375 307.945313 C 212.109375 307.945313 215.210938 318.796875 236.910156 324.996094 L 339.179688 324.996094 L 388.777344 114.234375 L 346.933594 331.195313 L 240.007813 338.945313 C 240.007813 338.945313 216.761719 335.839844 202.804688 315.695313 C 202.804688 315.695313 182.660156 168.472656 157.871094 126.632813 C 157.871094 126.632813 111.570313 144.632813 110.027344 127.582031 "/>
<path style=" stroke:none;fill-rule:nonzero;fill:rgb(0%,65.098572%,31.369019%);fill-opacity:1;" d="M 203.316406 315.5 C 216.664063 334.65625 238.796875 338.222656 240.023438 338.40625 L 346.492188 330.691406 L 383.285156 139.878906 L 339.601563 325.53125 L 236.757813 325.507813 C 215.027344 319.296875 211.726563 308.546875 211.597656 308.089844 L 211.582031 307.980469 C 202.609375 177.964844 178.941406 126.714844 177.59375 123.890625 C 166.769531 116.421875 155.871094 112.632813 145.195313 112.632813 C 125.171875 112.632813 112.121094 126.09375 110.582031 127.765625 C 111.105469 132.160156 115.066406 134.390625 122.363281 134.390625 C 136.289063 134.390625 157.464844 126.21875 157.675781 126.136719 L 158.09375 125.972656 L 158.328125 126.359375 C 182.578125 167.285156 202.617188 310.4375 203.316406 315.5 M 239.988281 339.476563 L 239.933594 339.472656 C 239.699219 339.4375 216.296875 336.101563 202.371094 316 L 202.296875 315.894531 L 202.277344 315.769531 C 202.082031 314.304688 181.988281 169.082031 157.636719 127.289063 C 154.550781 128.453125 135.378906 135.453125 122.363281 135.453125 C 114.296875 135.453125 109.96875 132.824219 109.496094 127.632813 L 109.476563 127.40625 L 109.625 127.234375 C 109.761719 127.078125 123.460938 111.574219 145.195313 111.574219 C 156.128906 111.574219 167.269531 115.449219 178.316406 123.097656 L 178.425781 123.171875 L 178.488281 123.292969 C 178.742188 123.789063 203.429688 174.511719 212.636719 307.847656 C 212.898438 308.617188 216.667969 318.636719 236.980469 324.464844 L 338.761719 324.464844 L 388.257813 114.109375 L 389.296875 114.332031 L 347.378906 331.695313 L 346.96875 331.726563 Z M 239.988281 339.476563 "/>
<path style=" stroke:none;fill-rule:nonzero;fill:rgb(0%,65.098572%,31.369019%);fill-opacity:1;" d="M 345.382813 338.945313 L 233.804688 351.339844 L 233.804688 365.289063 L 345.382813 346.691406 Z M 345.382813 338.945313 "/>
<path style=" stroke:none;fill-rule:nonzero;fill:rgb(0%,65.098572%,31.369019%);fill-opacity:1;" d="M 363.980469 366.839844 C 363.980469 377.96875 359.816406 386.984375 354.683594 386.984375 C 349.546875 386.984375 345.382813 377.96875 345.382813 366.839844 C 345.382813 355.710938 349.546875 346.691406 354.683594 346.691406 C 359.816406 346.691406 363.980469 355.710938 363.980469 366.839844 "/>
<path style=" stroke:none;fill-rule:nonzero;fill:rgb(0%,65.098572%,31.369019%);fill-opacity:1;" d="M 242.679688 393.15625 C 242.679688 407.695313 237.949219 419.476563 232.113281 419.476563 C 226.273438 419.476563 221.542969 407.695313 221.542969 393.15625 C 221.542969 378.621094 226.273438 366.839844 232.113281 366.839844 C 237.949219 366.839844 242.679688 378.621094 242.679688 393.15625 "/>
<path style=" stroke:none;fill-rule:nonzero;fill:rgb(0%,65.098572%,31.369019%);fill-opacity:1;" d="M 365.449219 117.765625 L 352.699219 168.71875 C 352.699219 168.71875 353.394531 170.941406 356.757813 161.824219 L 367.066406 120.628906 Z M 365.449219 117.765625 "/>
<path style=" stroke:none;fill-rule:nonzero;fill:rgb(0%,65.098572%,31.369019%);fill-opacity:1;" d="M 383.882813 102.585938 L 398.835938 48.035156 C 402.953125 33.035156 395.207031 17.828125 381.546875 14.085938 L 364.453125 9.398438 C 350.804688 5.65625 336.390625 14.78125 332.277344 29.785156 L 317.324219 84.335938 C 355.671875 79.203125 383.882813 102.585938 383.882813 102.585938 "/>
<use xlink:href="#surface7" transform="matrix(1,0,0,1,259,149)" mask="url(#mask0)"/>
<path style=" stroke:none;fill-rule:nonzero;fill:rgb(0%,65.098572%,31.369019%);fill-opacity:1;" d="M 312.613281 86.605469 L 296.480469 145.441406 C 296.480469 145.441406 292.296875 153.375 297.367188 157.113281 L 317.3125 84.335938 Z M 312.613281 86.605469 "/>
<path style=" stroke:none;fill-rule:nonzero;fill:rgb(0%,65.098572%,31.369019%);fill-opacity:1;" d="M 317.316406 84.335938 L 297.367188 157.109375 C 297.367188 157.109375 332.03125 150.96875 363.925781 175.359375 L 383.882813 102.585938 C 383.882813 102.585938 355.671875 79.203125 317.316406 84.335938 "/>
<use xlink:href="#surface6" transform="matrix(1,0,0,1,348,20)" mask="url(#mask1)"/>
<path style=" stroke:none;fill-rule:nonzero;fill:rgb(100%,100%,100%);fill-opacity:1;" d="M 333.851563 94.289063 C 330.039063 108.195313 317.453125 116.867188 305.738281 113.65625 C 294.03125 110.445313 287.632813 96.566406 291.441406 82.660156 C 295.25 68.75 307.835938 60.078125 319.546875 63.289063 C 331.261719 66.503906 337.660156 80.378906 333.851563 94.289063 "/>
<path style="fill:none;stroke-width:0.25;stroke-linecap:butt;stroke-linejoin:miter;stroke:rgb(0%,65.098572%,31.369019%);stroke-opacity:1;stroke-miterlimit:10;" d="M -0.0019375 0.0012375 C -3.814437 -13.905012 -16.400375 -22.576887 -28.115219 -19.36595 C -39.82225 -16.155012 -46.220687 -2.276106 -42.412094 11.630144 C -38.6035 25.5403 -26.017562 34.212175 -14.306625 31.001238 C -2.591781 27.786394 3.806656 13.911394 -0.0019375 0.0012375 Z M -0.0019375 0.0012375 " transform="matrix(1,0,0,-1,333.8535,94.2903)"/>
<path style=" stroke:none;fill-rule:nonzero;fill:rgb(100%,100%,100%);fill-opacity:1;" d="M 382.464844 96.78125 C 378.65625 110.6875 366.417969 119.453125 355.132813 116.359375 C 343.855469 113.269531 337.796875 99.488281 341.609375 85.582031 C 345.433594 71.671875 357.660156 62.90625 368.945313 65.996094 C 380.230469 69.09375 386.285156 82.871094 382.464844 96.78125 "/>
<path style="fill:none;stroke-width:0.25;stroke-linecap:butt;stroke-linejoin:miter;stroke:rgb(0%,65.098572%,31.369019%);stroke-opacity:1;stroke-miterlimit:10;" d="M -0.00095625 0.00125 C -3.80955 -13.905 -16.047831 -22.670625 -27.332988 -19.576875 C -38.610331 -16.487031 -44.668925 -2.705781 -40.856425 11.200469 C -37.032206 25.110625 -24.805644 33.87625 -13.520488 30.786406 C -2.235331 27.68875 3.819356 13.911406 -0.00095625 0.00125 Z M -0.00095625 0.00125 " transform="matrix(1,0,0,-1,382.4658,96.7825)"/>
<path style=" stroke:none;fill-rule:nonzero;fill:rgb(0%,65.098572%,31.369019%);fill-opacity:1;" d="M 323.59375 76.617188 C 322.113281 81.996094 316.648438 85.1875 311.375 83.742188 C 306.09375 82.292969 303.019531 76.761719 304.496094 71.378906 C 305.972656 66 311.445313 62.804688 316.714844 64.253906 C 321.992188 65.699219 325.070313 71.238281 323.59375 76.617188 "/>
<path style=" stroke:none;fill-rule:nonzero;fill:rgb(0%,65.098572%,31.369019%);fill-opacity:1;" d="M 373.648438 79.15625 C 372.289063 84.566406 366.890625 87.882813 361.585938 86.554688 C 356.285156 85.222656 353.082031 79.757813 354.429688 74.34375 C 355.792969 68.9375 361.195313 65.621094 366.492188 66.949219 C 371.800781 68.277344 375 73.75 373.648438 79.15625 "/>
<path style=" stroke:none;fill-rule:nonzero;fill:rgb(100%,100%,100%);fill-opacity:1;" d="M 277.921875 139.542969 C 277.921875 139.542969 311.15625 191.78125 376.890625 139.976563 C 376.890625 139.976563 317.410156 211.1875 277.921875 139.542969 "/>
<path style="fill:none;stroke-width:0.5;stroke-linecap:butt;stroke-linejoin:miter;stroke:rgb(0%,65.098572%,31.369019%);stroke-opacity:1;stroke-miterlimit:10;" d="M 0.000475 -0.00116875 C 0.000475 -0.00116875 33.23485 -52.23945 98.969225 -0.434763 C 98.969225 -0.434763 39.488756 -71.6457 0.000475 -0.00116875 Z M 0.000475 -0.00116875 " transform="matrix(1,0,0,-1,277.9214,139.5418)"/>
</g>
</svg>


