<?xml version="1.0" encoding="UTF-8"?>
<svg xmlns="http://www.w3.org/2000/svg" xmlns:xlink="http://www.w3.org/1999/xlink" width="566.929pt" height="566.929pt" viewBox="0 0 566.929 566.929" version="1.1">
<defs>
<filter id="alpha" filterUnits="objectBoundingBox" x="0%" y="0%" width="100%" height="100%">
  <feColorMatrix type="matrix" in="SourceGraphic" values="0 0 0 0 1 0 0 0 0 1 0 0 0 0 1 0 0 0 1 0"/>
</filter>
<mask id="mask0">
  <g filter="url(#alpha)">
<rect x="0" y="0" width="566.929" height="566.929" style="fill:rgb(0%,0%,0%);fill-opacity:0.5;stroke:none;"/>
  </g>
</mask>
<clipPath id="clip2">
  <path d="M 8 7 L 105 7 L 105 154 L 8 154 Z M 8 7 "/>
</clipPath>
<clipPath id="clip3">
  <path d="M 0.347656 142.199219 L 69.253906 161.085938 L 108.199219 19.042969 L 39.289063 0.148438 Z M 0.347656 142.199219 "/>
</clipPath>
<clipPath id="clip4">
  <path d="M 0.347656 0.148438 L 108.199219 0.148438 L 108.199219 161.085938 L 0.347656 161.085938 Z M 0.347656 0.148438 "/>
</clipPath>
<clipPath id="clip5">
  <path d="M 0.347656 142.199219 L 69.253906 161.085938 L 108.199219 19.042969 L 39.289063 0.148438 Z M 0.347656 142.199219 "/>
</clipPath>
<clipPath id="clip1">
  <rect width="109" height="162"/>
</clipPath>
<g id="surface7" clip-path="url(#clip1)">
<g clip-path="url(#clip2)" clip-rule="nonzero">
<g clip-path="url(#clip3)" clip-rule="nonzero">
<path style=" stroke:none;fill-rule:nonzero;fill:rgb(25.201416%,72.608948%,23.46344%);fill-opacity:1;" d="M 38.367188 8.113281 L 9.285156 114.179688 C 5.171875 129.183594 12.914063 144.382813 26.570313 148.128906 L 43.660156 152.8125 C 57.324219 156.5625 71.734375 147.429688 75.847656 132.429688 L 104.925781 26.363281 C 73.03125 1.96875 38.367188 8.113281 38.367188 8.113281 "/>
</g>
</g>
<g clip-path="url(#clip4)" clip-rule="nonzero">
<g clip-path="url(#clip5)" clip-rule="nonzero">
<path style="fill:none;stroke-width:1;stroke-linecap:butt;stroke-linejoin:miter;stroke:rgb(0%,65.098572%,31.369019%);stroke-opacity:1;stroke-miterlimit:10;" d="M 0.0009875 -0.00068125 L -29.081044 -106.067088 C -33.194325 -121.070994 -25.452137 -136.270213 -11.795887 -140.016306 L 5.293956 -144.6999 C 18.958019 -148.4499 33.368175 -139.317088 37.481456 -124.317088 L 66.559581 -18.250681 C 34.66505 6.14385 0.0009875 -0.00068125 0.0009875 -0.00068125 Z M 0.0009875 -0.00068125 " transform="matrix(1,0,0,-1,38.3662,8.1126)"/>
</g>
</g>
</g>
<mask id="mask1">
  <g filter="url(#alpha)">
<rect x="0" y="0" width="566.929" height="566.929" style="fill:rgb(0%,0%,0%);fill-opacity:0.5;stroke:none;"/>
  </g>
</mask>
<clipPath id="clip7">
  <path d="M 5 0.765625 L 40 0.765625 L 40 146 L 5 146 Z M 5 0.765625 "/>
</clipPath>
<clipPath id="clip8">
  <path d="M 0.703125 143.589844 L 16.25 147.480469 L 52.007813 4.65625 L 36.460938 0.765625 Z M 0.703125 143.589844 "/>
</clipPath>
<clipPath id="clip6">
  <rect width="53" height="148"/>
</clipPath>
<g id="surface6" clip-path="url(#clip6)">
<g clip-path="url(#clip7)" clip-rule="nonzero">
<g clip-path="url(#clip8)" clip-rule="nonzero">
<path style=" stroke:none;fill-rule:nonzero;fill:rgb(100%,100%,100%);fill-opacity:1;" d="M 36.460938 0.765625 C 36.460938 0.765625 47.746094 4.398438 29.792969 77.863281 C 29.792969 77.863281 35.136719 91.449219 13.898438 141.359375 L 8.480469 145.535156 L 5.121094 141.496094 C 5.121094 141.496094 26.3125 119.738281 25.984375 75.621094 C 25.984375 75.621094 42.496094 13.945313 36.460938 0.765625 "/>
</g>
</g>
</g>
</defs>
<g id="surface1">
<path style=" stroke:none;fill-rule:nonzero;fill:rgb(25%,72.549438%,23.526001%);fill-opacity:1;" d="M 124.78125 525.082031 C 124.78125 530.3125 122.578125 534.800781 118.167969 538.535156 C 114.300781 541.835938 109.597656 543.941406 104.054688 544.84375 C 103.847656 544.867188 103.679688 544.878906 103.554688 544.878906 C 102.957031 544.878906 101.644531 543.066406 99.609375 539.449219 C 97.570313 535.828125 96.554688 533.609375 96.554688 532.816406 C 96.554688 532.535156 96.742188 532.351563 97.132813 532.269531 C 100.867188 531.421875 103.34375 530.703125 104.554688 530.105469 C 107.238281 528.769531 108.578125 526.785156 108.578125 524.15625 C 108.578125 522.476563 107.703125 520.609375 105.953125 518.546875 C 102.90625 515.039063 101.257813 513.09375 101 512.707031 C 99.222656 510.027344 98.328125 507.058594 98.328125 503.8125 C 98.328125 499.09375 100.507813 495.175781 104.871094 492.058594 C 108.425781 489.480469 112.792969 487.800781 117.976563 487.027344 C 118.257813 487.003906 118.484375 486.992188 118.632813 486.992188 C 119.023438 486.992188 119.328125 487.296875 119.566406 487.917969 C 120.234375 489.800781 121.789063 493.207031 124.242188 498.125 C 124.316406 498.285156 124.355469 498.414063 124.355469 498.511719 C 124.355469 498.957031 124.125 499.171875 123.65625 499.171875 C 123.453125 499.171875 123.109375 499.132813 122.621094 499.058594 C 122.128906 498.976563 121.753906 498.9375 121.496094 498.9375 C 119.636719 498.9375 118.011719 499.367188 116.621094 500.214844 C 114.945313 501.199219 114.109375 502.5625 114.109375 504.316406 C 114.109375 505.890625 115.035156 507.824219 116.894531 510.113281 C 120.167969 514.242188 121.882813 516.40625 122.035156 516.613281 C 123.863281 519.445313 124.78125 522.273438 124.78125 525.082031 "/>
<path style=" stroke:none;fill-rule:nonzero;fill:rgb(0%,65.098572%,31.369019%);fill-opacity:1;" d="M 186.421875 515.800781 C 186.421875 519.820313 186.101563 522.625 185.453125 524.191406 C 184.785156 525.847656 183.109375 528.910156 180.429688 533.394531 C 177.695313 538.011719 175.8125 540.871094 174.78125 541.976563 C 174.082031 542.726563 172.382813 543.101563 169.675781 543.101563 C 167.433594 543.101563 166.015625 543.023438 165.425781 542.871094 C 164.933594 542.742188 164.484375 542.480469 164.074219 542.097656 C 162.601563 540.652344 160.332031 537.109375 157.265625 531.464844 C 154.015625 537.257813 151.800781 540.808594 150.613281 542.097656 C 149.996094 542.769531 148.308594 543.101563 145.546875 543.101563 C 143.585938 543.101563 142.324219 543.023438 141.761719 542.871094 C 140.46875 542.507813 138.292969 539.710938 135.222656 534.476563 C 132.71875 530.199219 130.929688 526.769531 129.847656 524.191406 C 129.179688 522.542969 128.84375 519.746094 128.84375 515.800781 C 128.84375 511.03125 128.972656 508.117188 129.226563 507.058594 C 129.40625 506.390625 129.859375 506.054688 130.582031 506.054688 C 131.769531 506.054688 133.546875 506.09375 135.917969 506.171875 C 138.292969 506.25 140.070313 506.285156 141.25 506.285156 C 141.851563 506.285156 142.144531 506.710938 142.144531 507.566406 C 142.144531 508.316406 142.121094 509.453125 142.074219 510.988281 C 142.015625 512.519531 141.988281 513.660156 141.988281 514.40625 C 141.988281 517.527344 142.074219 519.835938 142.222656 521.328125 C 142.273438 521.894531 142.960938 523.347656 144.289063 525.679688 C 145.617188 528.015625 146.4375 529.179688 146.746094 529.179688 C 147.210938 529.179688 148.0625 528.03125 149.300781 525.738281 C 150.308594 523.808594 150.964844 522.367188 151.273438 521.425781 C 151.578125 520.484375 151.734375 518.160156 151.734375 514.449219 C 151.734375 513.671875 151.664063 512.519531 151.523438 510.988281 C 151.375 509.453125 151.3125 508.316406 151.3125 507.566406 C 151.3125 506.765625 151.605469 506.363281 152.199219 506.363281 C 152.921875 506.363281 154.355469 506.351563 156.492188 506.328125 L 158.074219 506.285156 C 158.054688 506.285156 158.003906 506.277344 157.941406 506.265625 C 157.878906 506.257813 157.859375 506.261719 157.886719 506.285156 L 159.15625 506.285156 C 160.136719 506.261719 161.566406 506.285156 163.457031 506.363281 C 164.019531 506.441406 164.304688 506.84375 164.304688 507.566406 C 164.304688 508.542969 164.238281 510.027344 164.109375 512.027344 C 163.980469 514.027344 163.917969 515.515625 163.917969 516.496094 C 163.917969 519.125 164.019531 520.792969 164.226563 521.480469 C 164.511719 522.363281 165.125 523.765625 166.078125 525.699219 C 167.238281 528.019531 168.054688 529.179688 168.519531 529.179688 C 168.980469 529.179688 169.847656 528.015625 171.109375 525.660156 C 172.320313 523.417969 172.96875 521.949219 173.046875 521.253906 C 173.148438 520.273438 173.195313 515.707031 173.195313 507.566406 C 173.195313 506.664063 173.453125 506.214844 173.964844 506.214844 C 175.15625 506.214844 176.9375 506.171875 179.324219 506.09375 C 181.710938 506.015625 183.488281 505.976563 184.683594 505.976563 C 185.382813 505.976563 185.820313 506.339844 185.996094 507.058594 C 186.28125 508.144531 186.421875 511.058594 186.421875 515.800781 "/>
<path style=" stroke:none;fill-rule:nonzero;fill:rgb(0%,65.098572%,31.369019%);fill-opacity:1;" d="M 206.183594 496.386719 C 206.183594 500.875 203.65625 503.117188 198.597656 503.117188 C 196.4375 503.117188 194.644531 502.550781 193.226563 501.414063 C 191.683594 500.179688 190.90625 498.5 190.90625 496.386719 C 190.90625 494.378906 191.707031 492.730469 193.304688 491.4375 C 194.773438 490.25 196.546875 489.660156 198.597656 489.660156 C 200.617188 489.660156 202.355469 490.261719 203.828125 491.476563 C 205.394531 492.765625 206.183594 494.402344 206.183594 496.386719 M 205.175781 525.117188 C 205.175781 527 205.214844 529.808594 205.289063 533.53125 C 205.371094 537.253906 205.402344 540.046875 205.402344 541.902344 C 205.402344 542.441406 205.085938 542.765625 204.441406 542.871094 C 203.566406 543.023438 201.59375 543.101563 198.527344 543.101563 C 195.429688 543.101563 193.441406 543.023438 192.570313 542.871094 C 192.003906 542.765625 191.65625 542.597656 191.527344 542.363281 C 191.476563 542.265625 191.445313 541.875 191.445313 541.207031 C 191.445313 539.425781 191.488281 536.753906 191.566406 533.183594 C 191.640625 529.609375 191.683594 526.929688 191.683594 525.117188 C 191.683594 517.796875 191.398438 511.972656 190.828125 507.640625 C 190.78125 507.230469 190.757813 506.960938 190.757813 506.828125 C 190.757813 506.316406 191.101563 506.054688 191.796875 506.054688 C 192.519531 506.054688 193.617188 506.132813 195.105469 506.289063 C 196.585938 506.441406 197.703125 506.519531 198.445313 506.519531 C 199.191406 506.519531 200.320313 506.453125 201.808594 506.324219 C 203.308594 506.199219 204.425781 506.132813 205.175781 506.132813 C 205.796875 506.132813 206.101563 506.390625 206.101563 506.902344 C 206.101563 507.007813 206.078125 507.253906 206.027344 507.640625 C 205.460938 512.671875 205.175781 518.492188 205.175781 525.117188 "/>
<path style=" stroke:none;fill-rule:nonzero;fill:rgb(0%,65.098572%,31.369019%);fill-opacity:1;" d="M 236.425781 517.925781 C 236.425781 518.546875 236.085938 518.855469 235.417969 518.855469 C 232.628906 518.855469 230.441406 518.78125 228.84375 518.625 C 228.921875 520.558594 229 523.25 229.074219 526.707031 C 229.101563 528.175781 229.214844 530.726563 229.421875 534.363281 C 229.601563 537.632813 229.691406 540.191406 229.691406 542.019531 C 229.691406 542.5625 229.328125 542.871094 228.605469 542.945313 C 227.734375 543.050781 225.546875 543.101563 222.039063 543.101563 C 219.125 543.101563 217.226563 543.023438 216.355469 542.871094 C 215.472656 542.714844 215.039063 542.1875 215.039063 541.285156 L 215.039063 519.976563 C 215.039063 519.226563 214.519531 518.855469 213.488281 518.855469 C 213.3125 518.855469 213.019531 518.871094 212.621094 518.894531 C 212.21875 518.921875 211.925781 518.933594 211.75 518.933594 C 211.03125 518.933594 210.652344 518.726563 210.632813 518.3125 C 210.394531 516.070313 210.28125 512.808594 210.28125 508.53125 C 210.28125 507.574219 210.769531 506.996094 211.75 506.789063 C 212.628906 506.714844 213.519531 506.652344 214.414063 506.597656 C 214.285156 504.535156 214.226563 502.921875 214.226563 501.761719 C 214.226563 497.328125 215.089844 494.105469 216.8125 492.101563 C 220.246094 488.097656 225.789063 486.109375 233.445313 486.109375 C 233.960938 486.109375 234.269531 486.257813 234.371094 486.566406 C 234.578125 487.726563 234.875 489.4375 235.265625 491.710938 C 235.289063 491.917969 235.449219 492.636719 235.765625 493.875 C 235.996094 494.828125 236.113281 495.5625 236.113281 496.078125 C 236.113281 496.699219 235.199219 497.097656 233.363281 497.277344 C 231.253906 497.507813 229.949219 497.898438 229.457031 498.4375 C 228.605469 499.363281 228.183594 501.183594 228.183594 503.890625 C 228.183594 504.742188 228.25 505.542969 228.378906 506.289063 C 229.101563 506.289063 230.222656 506.261719 231.742188 506.207031 C 233.265625 506.15625 234.410156 506.132813 235.1875 506.132813 C 235.957031 506.132813 236.34375 506.417969 236.34375 506.988281 C 236.34375 508.195313 236.359375 510.019531 236.378906 512.457031 C 236.410156 514.890625 236.425781 516.714844 236.425781 517.925781 "/>
<path style=" stroke:none;fill-rule:nonzero;fill:rgb(0%,65.098572%,31.369019%);fill-opacity:1;" d="M 266.464844 531.542969 C 266.464844 532.3125 266.378906 533.484375 266.179688 535.058594 C 265.984375 536.628906 265.894531 537.78125 265.894531 538.519531 C 265.894531 539.253906 265.808594 539.722656 265.660156 539.929688 C 265.5 540.136719 265.078125 540.433594 264.382813 540.820313 C 261.054688 542.648438 257.371094 543.5625 253.324219 543.5625 C 245.867188 543.5625 242.144531 540.714844 242.144531 535.023438 C 242.144531 533.316406 242.210938 530.757813 242.339844 527.34375 C 242.464844 523.925781 242.53125 521.371094 242.53125 519.667969 C 242.53125 518.535156 241.875 517.964844 240.566406 517.964844 L 240.058594 517.964844 C 239.828125 517.992188 239.65625 518.003906 239.554688 518.003906 C 238.578125 518.003906 238.082031 517.65625 238.082031 516.960938 C 238.082031 516.546875 238.117188 515.914063 238.183594 515.066406 C 238.246094 514.21875 238.285156 513.585938 238.285156 513.171875 C 238.285156 512.632813 238.246094 511.796875 238.183594 510.695313 C 238.117188 509.585938 238.082031 508.761719 238.082031 508.222656 C 238.082031 507.707031 238.910156 507.421875 240.566406 507.367188 C 241.492188 507.347656 241.996094 507.089844 242.066406 506.597656 C 242.222656 505.617188 242.273438 504.074219 242.222656 501.957031 C 242.121094 498.628906 242.066406 497.046875 242.066406 497.199219 C 242.066406 494.207031 242.351563 492.714844 242.921875 492.714844 C 243.617188 492.714844 244.609375 492.871094 245.898438 493.175781 C 247.371094 493.511719 248.382813 493.707031 248.953125 493.757813 C 250.269531 493.941406 252.25 494.183594 254.914063 494.496094 C 255.554688 494.546875 255.875 494.761719 255.875 495.148438 C 255.875 496.179688 255.789063 497.742188 255.625 499.832031 C 255.453125 501.917969 255.375 503.488281 255.375 504.550781 C 255.375 505.808594 255.746094 506.441406 256.496094 506.441406 C 257.398438 506.441406 258.761719 506.40625 260.589844 506.324219 C 262.421875 506.25 263.796875 506.207031 264.726563 506.207031 C 265.296875 506.207031 265.582031 506.40625 265.582031 506.789063 C 265.582031 507.382813 265.515625 508.273438 265.386719 509.460938 C 265.257813 510.640625 265.195313 511.535156 265.195313 512.125 C 265.195313 512.746094 265.207031 513.648438 265.230469 514.835938 C 265.257813 516.019531 265.273438 516.921875 265.273438 517.542969 C 265.273438 518.082031 264.898438 518.351563 264.148438 518.351563 C 263.632813 518.351563 262.769531 518.332031 261.5625 518.292969 C 260.347656 518.253906 259.488281 518.234375 258.96875 518.234375 L 256.070313 518.234375 C 255.683594 518.234375 255.488281 518.796875 255.488281 519.9375 L 255.488281 522.683594 C 255.511719 523.921875 255.519531 524.835938 255.519531 525.429688 C 255.519531 527.59375 255.773438 529.089844 256.261719 529.914063 C 256.957031 531.027344 258.324219 531.582031 260.351563 531.582031 C 261 531.582031 261.925781 531.433594 263.125 531.132813 C 264.324219 530.835938 265.167969 530.691406 265.660156 530.691406 C 266.199219 530.691406 266.464844 530.96875 266.464844 531.542969 "/>
<path style=" stroke:none;fill-rule:nonzero;fill:rgb(25%,72.549438%,23.526001%);fill-opacity:1;" d="M 326.253906 515.453125 C 326.253906 511.097656 324.953125 507.539063 322.347656 504.785156 C 319.71875 501.917969 316.234375 500.488281 311.90625 500.488281 C 307.933594 500.488281 305.953125 501.015625 305.953125 502.074219 C 305.953125 503.59375 305.925781 505.882813 305.875 508.933594 C 305.824219 511.992188 305.800781 514.28125 305.800781 515.800781 C 305.800781 517.296875 305.824219 519.542969 305.875 522.550781 C 305.925781 525.550781 305.953125 527.816406 305.953125 529.332031 C 305.953125 530.445313 308.011719 530.996094 312.140625 530.996094 C 316.597656 530.996094 320.101563 529.515625 322.65625 526.550781 C 325.0625 523.746094 326.253906 520.039063 326.253906 515.453125 M 341.0625 515.453125 C 341.0625 523.03125 338.628906 529.605469 333.757813 535.175781 C 329.449219 540.152344 323.40625 542.765625 315.617188 543.023438 C 314.125 543.074219 310.011719 543.097656 303.285156 543.097656 C 302.023438 543.097656 300.117188 543.0625 297.578125 542.980469 C 295.039063 542.910156 293.136719 542.871094 291.875 542.871094 C 291.128906 542.871094 290.757813 542.570313 290.757813 541.976563 C 290.757813 539.144531 290.863281 534.882813 291.085938 529.199219 C 291.300781 523.515625 291.40625 519.253906 291.40625 516.417969 C 291.40625 513.457031 291.300781 509.015625 291.085938 503.09375 C 290.863281 497.179688 290.757813 492.753906 290.757813 489.8125 C 290.757813 489.273438 291.128906 488.949219 291.875 488.847656 C 293.703125 488.640625 296.710938 488.53125 300.882813 488.53125 C 308.824219 488.53125 313.96875 488.652344 316.320313 488.882813 C 322.429688 489.503906 327.207031 491.054688 330.664063 493.519531 C 333.910156 495.847656 336.476563 499.09375 338.359375 503.269531 C 340.160156 507.214844 341.0625 511.273438 341.0625 515.453125 "/>
<path style=" stroke:none;fill-rule:nonzero;fill:rgb(0%,65.098572%,31.369019%);fill-opacity:1;" d="M 372.425781 518.78125 C 372.425781 519.785156 371.867188 520.285156 370.761719 520.285156 C 370.277344 520.285156 369.554688 520.253906 368.617188 520.191406 C 367.671875 520.125 366.972656 520.09375 366.507813 520.09375 C 364.363281 520.09375 362.910156 520.425781 362.140625 521.09375 C 361.363281 521.765625 360.984375 523.125 360.984375 525.160156 C 360.984375 526.269531 361.003906 527.949219 361.035156 530.203125 C 361.074219 532.464844 361.09375 534.140625 361.09375 535.25 C 361.09375 536 361.148438 537.117188 361.253906 538.59375 C 361.351563 540.078125 361.410156 541.183594 361.410156 541.902344 C 361.410156 542.523438 360.984375 542.871094 360.128906 542.945313 C 358.894531 543.050781 356.996094 543.097656 354.445313 543.097656 C 351.992188 543.097656 350.035156 543.023438 348.566406 542.871094 C 347.710938 542.761719 347.289063 542.339844 347.289063 541.597656 C 347.289063 539.53125 347.296875 536.445313 347.332031 532.332031 C 347.347656 528.21875 347.367188 525.128906 347.367188 523.070313 C 347.367188 517.011719 346.816406 512.019531 345.707031 508.109375 C 345.660156 507.875 345.625 507.679688 345.625 507.527344 C 345.625 507.136719 345.820313 506.878906 346.210938 506.75 C 347.621094 506.59375 349.703125 506.316406 352.433594 505.902344 C 356.503906 505.105469 358.609375 504.699219 358.738281 504.699219 C 359.199219 504.699219 359.5 505.511719 359.621094 507.136719 C 359.753906 508.761719 359.984375 509.574219 360.316406 509.574219 C 359.957031 509.574219 361.015625 508.902344 363.488281 507.546875 C 365.96875 506.191406 368.355469 505.511719 370.648438 505.511719 C 372.085938 505.511719 372.8125 505.820313 372.8125 506.441406 C 372.8125 507.191406 372.734375 508.246094 372.578125 509.613281 C 372.425781 511.082031 372.335938 512.136719 372.3125 512.78125 C 372.3125 513.53125 372.320313 514.523438 372.351563 515.761719 C 372.398438 517.285156 372.425781 518.285156 372.425781 518.78125 "/>
<path style=" stroke:none;fill-rule:nonzero;fill:rgb(0%,65.098572%,31.369019%);fill-opacity:1;" d="M 416.738281 507.714844 C 416.738281 509.628906 416.652344 512.492188 416.472656 516.304688 C 416.289063 520.121094 416.195313 522.980469 416.195313 524.886719 C 416.195313 526.746094 416.261719 529.527344 416.390625 533.238281 C 416.519531 536.953125 416.585938 539.722656 416.585938 541.554688 C 416.585938 542.253906 416.261719 542.691406 415.621094 542.871094 C 414.636719 543.128906 412.566406 543.253906 409.394531 543.253906 C 406.585938 543.253906 404.628906 543.175781 403.515625 543.023438 C 403.027344 542.945313 402.714844 542.636719 402.589844 542.097656 C 402.511719 541.324219 402.433594 540.550781 402.351563 539.773438 C 402.222656 538.59375 402.050781 537.996094 401.808594 537.996094 C 402.175781 537.996094 400.871094 538.875 397.914063 540.625 C 394.941406 542.382813 392.25 543.253906 389.828125 543.253906 C 382.992188 543.253906 378.945313 540.179688 377.683594 534.011719 C 377.121094 531.152344 376.835938 527.003906 376.835938 521.558594 C 376.835938 515.683594 377.304688 511.042969 378.261719 507.640625 C 378.546875 506.582031 379.078125 506.054688 379.84375 506.054688 C 381.03125 506.054688 382.835938 506.070313 385.261719 506.09375 C 387.691406 506.121094 389.492188 506.128906 390.679688 506.128906 C 391.476563 506.128906 391.875 506.46875 391.875 507.136719 C 391.875 507.320313 391.847656 507.589844 391.800781 507.949219 C 391.253906 511.457031 390.984375 515.011719 390.984375 518.625 C 390.984375 523.109375 391.128906 526.175781 391.40625 527.824219 C 391.875 530.660156 393.5625 532.082031 396.476563 532.082031 C 397.613281 532.082031 398.84375 531.582031 400.171875 530.570313 C 401.496094 529.570313 402.191406 528.523438 402.238281 527.441406 C 402.289063 526.484375 402.320313 520.015625 402.320313 508.027344 C 402.320313 507.179688 402.382813 506.675781 402.511719 506.519531 C 402.671875 506.261719 403.125 506.128906 403.902344 506.128906 C 405.164063 506.128906 407.066406 506.144531 409.601563 506.171875 C 412.144531 506.199219 414.050781 506.207031 415.308594 506.207031 C 416.082031 506.207031 416.53125 506.402344 416.664063 506.789063 C 416.714844 506.996094 416.738281 507.304688 416.738281 507.714844 "/>
<path style=" stroke:none;fill-rule:nonzero;fill:rgb(0%,65.098572%,31.369019%);fill-opacity:1;" d="M 448.257813 522.101563 C 448.257813 520.21875 447.628906 518.589844 446.382813 517.210938 C 445.132813 515.832031 443.566406 515.140625 441.683594 515.140625 C 439.808594 515.140625 438.238281 515.84375 436.988281 517.25 C 435.730469 518.65625 435.105469 520.300781 435.105469 522.179688 C 435.105469 524.0625 435.75 525.6875 437.023438 527.046875 C 438.300781 528.421875 439.851563 529.105469 441.683594 529.105469 C 443.566406 529.105469 445.132813 528.410156 446.382813 527.011719 C 447.628906 525.625 448.257813 523.984375 448.257813 522.101563 M 461.632813 532.816406 C 461.632813 540.160156 460.09375 545.433594 456.996094 548.632813 C 453.796875 551.90625 448.492188 553.542969 441.066406 553.542969 C 438.90625 553.542969 435.949219 553.191406 432.207031 552.5 C 427.441406 551.625 425.054688 550.589844 425.054688 549.40625 C 425.054688 548.910156 425.613281 546.386719 426.71875 541.824219 C 426.898438 541.105469 427.191406 540.742188 427.5625 540.742188 C 427.699219 540.769531 427.839844 540.820313 427.988281 540.898438 C 431.964844 542.859375 435.632813 543.832031 439.019531 543.832031 C 440.871094 543.832031 442.71875 543.375 444.542969 542.441406 C 446.753906 541.335938 447.867188 539.945313 447.867188 538.269531 L 447.867188 535.671875 C 445.242188 538.15625 441.863281 539.386719 437.738281 539.386719 C 432.894531 539.386719 428.910156 537.648438 425.792969 534.167969 C 422.78125 530.816406 421.261719 526.695313 421.261719 521.792969 C 421.261719 516.871094 422.707031 512.777344 425.597656 509.535156 C 428.609375 506.15625 432.554688 504.46875 437.429688 504.46875 C 441.324219 504.46875 444.296875 505.859375 446.367188 508.644531 C 446.777344 509.214844 447.0625 509.5 447.214844 509.5 C 447.445313 509.5 447.566406 509.03125 447.566406 508.109375 C 447.566406 506.039063 447.792969 505.015625 448.257813 505.015625 C 448.671875 505.015625 450.90625 505.222656 454.949219 505.648438 C 458.992188 506.074219 461.09375 506.316406 461.246094 506.363281 C 461.691406 506.519531 461.910156 506.855469 461.910156 507.367188 C 461.910156 509.148438 461.847656 511.804688 461.734375 515.332031 C 461.613281 518.867188 461.558594 521.523438 461.558594 523.304688 C 461.558594 524.359375 461.574219 525.945313 461.597656 528.058594 C 461.621094 530.175781 461.632813 531.757813 461.632813 532.816406 "/>
<path style=" stroke:none;fill-rule:nonzero;fill:rgb(0%,65.098572%,31.369019%);fill-opacity:1;" d="M 490.949219 511.585938 C 490.949219 511.84375 490.753906 512.191406 490.367188 512.632813 C 489.648438 512.449219 488.925781 512.355469 488.203125 512.355469 C 486.683594 512.355469 485.40625 512.699219 484.371094 513.363281 C 483.136719 514.140625 482.519531 515.234375 482.519531 516.648438 C 482.519531 517.554688 483.179688 518.699219 484.496094 520.09375 C 486.472656 522.179688 487.695313 523.585938 488.164063 524.308594 C 489.476563 526.269531 490.136719 528.367188 490.136719 530.609375 C 490.136719 531.929688 489.875 533.316406 489.363281 534.785156 C 488.773438 536.410156 488.015625 537.597656 487.121094 538.347656 C 485.214844 539.996094 482.976563 541.390625 480.429688 542.519531 C 477.671875 543.707031 475.136719 544.296875 472.808594 544.296875 C 472.300781 544.296875 471.144531 542.898438 469.355469 540.105469 C 467.558594 537.308594 466.664063 535.601563 466.664063 534.980469 C 466.664063 534.75 466.808594 534.605469 467.097656 534.554688 C 468.894531 534.21875 470.710938 533.882813 472.542969 533.546875 C 474.804688 532.832031 475.945313 531.640625 475.945313 529.992188 C 475.945313 528.859375 475.289063 527.542969 473.976563 526.046875 C 471.625 523.445313 470.40625 522.0625 470.296875 521.910156 C 468.984375 520.054688 468.320313 518.097656 468.320313 516.03125 C 468.320313 512.167969 470.285156 508.878906 474.203125 506.171875 C 477.707031 503.773438 481.464844 502.578125 485.460938 502.578125 C 485.875 502.578125 486.886719 503.964844 488.511719 506.730469 C 490.136719 509.507813 490.949219 511.125 490.949219 511.585938 "/>
<path style=" stroke:none;fill-rule:nonzero;fill:rgb(100%,100%,100%);fill-opacity:1;" d="M 488.097656 265.792969 C 488.097656 374.058594 398.5625 461.828125 288.113281 461.828125 C 177.667969 461.828125 88.132813 374.058594 88.132813 265.792969 C 88.132813 157.519531 177.667969 69.75 288.113281 69.75 C 398.5625 69.75 488.097656 157.519531 488.097656 265.792969 "/>
<path style=" stroke:none;fill-rule:nonzero;fill:rgb(25%,72.549438%,23.526001%);fill-opacity:1;" d="M 288.109375 77.203125 C 181.953125 77.203125 95.582031 161.804688 95.582031 265.792969 C 95.582031 369.777344 181.953125 454.375 288.109375 454.375 C 394.273438 454.375 480.644531 369.777344 480.644531 265.792969 C 480.644531 161.804688 394.273438 77.203125 288.109375 77.203125 M 288.109375 469.28125 C 173.734375 469.28125 80.679688 377.996094 80.679688 265.792969 C 80.679688 153.585938 173.734375 62.300781 288.109375 62.300781 C 402.492188 62.300781 495.546875 153.585938 495.546875 265.792969 C 495.546875 377.996094 402.492188 469.28125 288.109375 469.28125 "/>
<path style=" stroke:none;fill-rule:nonzero;fill:rgb(0%,65.098572%,31.369019%);fill-opacity:1;" d="M 110.027344 127.582031 C 110.027344 127.582031 137.722656 95.636719 178.007813 123.53125 C 178.007813 123.53125 202.804688 173.121094 212.109375 307.945313 C 212.109375 307.945313 215.210938 318.796875 236.910156 324.996094 L 339.179688 324.996094 L 388.777344 114.234375 L 346.933594 331.195313 L 240.007813 338.945313 C 240.007813 338.945313 216.761719 335.839844 202.804688 315.695313 C 202.804688 315.695313 182.660156 168.472656 157.871094 126.632813 C 157.871094 126.632813 111.570313 144.632813 110.027344 127.582031 "/>
<path style=" stroke:none;fill-rule:nonzero;fill:rgb(0%,65.098572%,31.369019%);fill-opacity:1;" d="M 203.316406 315.5 C 216.664063 334.65625 238.796875 338.222656 240.023438 338.40625 L 346.492188 330.691406 L 383.285156 139.878906 L 339.601563 325.53125 L 236.757813 325.507813 C 215.027344 319.296875 211.726563 308.546875 211.597656 308.089844 L 211.582031 307.980469 C 202.609375 177.964844 178.941406 126.714844 177.59375 123.890625 C 166.769531 116.421875 155.871094 112.632813 145.195313 112.632813 C 125.171875 112.632813 112.121094 126.09375 110.582031 127.765625 C 111.105469 132.160156 115.066406 134.390625 122.363281 134.390625 C 136.289063 134.390625 157.464844 126.21875 157.675781 126.136719 L 158.09375 125.972656 L 158.328125 126.359375 C 182.578125 167.285156 202.617188 310.4375 203.316406 315.5 M 239.988281 339.476563 L 239.933594 339.472656 C 239.699219 339.4375 216.296875 336.101563 202.371094 316 L 202.296875 315.894531 L 202.277344 315.769531 C 202.082031 314.304688 181.988281 169.082031 157.636719 127.289063 C 154.550781 128.453125 135.378906 135.453125 122.363281 135.453125 C 114.296875 135.453125 109.96875 132.824219 109.496094 127.632813 L 109.476563 127.40625 L 109.625 127.234375 C 109.761719 127.078125 123.460938 111.574219 145.195313 111.574219 C 156.128906 111.574219 167.269531 115.449219 178.316406 123.097656 L 178.425781 123.171875 L 178.488281 123.292969 C 178.742188 123.789063 203.429688 174.511719 212.636719 307.847656 C 212.898438 308.617188 216.667969 318.636719 236.980469 324.464844 L 338.761719 324.464844 L 388.257813 114.109375 L 389.296875 114.332031 L 347.378906 331.695313 L 346.96875 331.726563 Z M 239.988281 339.476563 "/>
<path style=" stroke:none;fill-rule:nonzero;fill:rgb(0%,65.098572%,31.369019%);fill-opacity:1;" d="M 345.382813 338.945313 L 233.804688 351.339844 L 233.804688 365.289063 L 345.382813 346.691406 Z M 345.382813 338.945313 "/>
<path style=" stroke:none;fill-rule:nonzero;fill:rgb(0%,65.098572%,31.369019%);fill-opacity:1;" d="M 363.980469 366.839844 C 363.980469 377.96875 359.816406 386.984375 354.683594 386.984375 C 349.546875 386.984375 345.382813 377.96875 345.382813 366.839844 C 345.382813 355.710938 349.546875 346.691406 354.683594 346.691406 C 359.816406 346.691406 363.980469 355.710938 363.980469 366.839844 "/>
<path style=" stroke:none;fill-rule:nonzero;fill:rgb(0%,65.098572%,31.369019%);fill-opacity:1;" d="M 242.679688 393.15625 C 242.679688 407.695313 237.949219 419.476563 232.113281 419.476563 C 226.273438 419.476563 221.542969 407.695313 221.542969 393.15625 C 221.542969 378.621094 226.273438 366.839844 232.113281 366.839844 C 237.949219 366.839844 242.679688 378.621094 242.679688 393.15625 "/>
<path style=" stroke:none;fill-rule:nonzero;fill:rgb(0%,65.098572%,31.369019%);fill-opacity:1;" d="M 365.449219 117.765625 L 352.699219 168.71875 C 352.699219 168.71875 353.394531 170.941406 356.757813 161.824219 L 367.066406 120.628906 Z M 365.449219 117.765625 "/>
<path style=" stroke:none;fill-rule:nonzero;fill:rgb(0%,65.098572%,31.369019%);fill-opacity:1;" d="M 383.882813 102.585938 L 398.835938 48.035156 C 402.953125 33.035156 395.207031 17.828125 381.546875 14.085938 L 364.453125 9.398438 C 350.804688 5.65625 336.390625 14.78125 332.277344 29.785156 L 317.324219 84.335938 C 355.671875 79.203125 383.882813 102.585938 383.882813 102.585938 "/>
<use xlink:href="#surface7" transform="matrix(1,0,0,1,259,149)" mask="url(#mask0)"/>
<path style=" stroke:none;fill-rule:nonzero;fill:rgb(0%,65.098572%,31.369019%);fill-opacity:1;" d="M 312.613281 86.605469 L 296.480469 145.441406 C 296.480469 145.441406 292.296875 153.375 297.367188 157.113281 L 317.3125 84.335938 Z M 312.613281 86.605469 "/>
<path style=" stroke:none;fill-rule:nonzero;fill:rgb(0%,65.098572%,31.369019%);fill-opacity:1;" d="M 317.316406 84.335938 L 297.367188 157.109375 C 297.367188 157.109375 332.03125 150.96875 363.925781 175.359375 L 383.882813 102.585938 C 383.882813 102.585938 355.671875 79.203125 317.316406 84.335938 "/>
<use xlink:href="#surface6" transform="matrix(1,0,0,1,348,20)" mask="url(#mask1)"/>
<path style=" stroke:none;fill-rule:nonzero;fill:rgb(100%,100%,100%);fill-opacity:1;" d="M 333.851563 94.289063 C 330.039063 108.195313 317.453125 116.867188 305.738281 113.65625 C 294.03125 110.445313 287.632813 96.566406 291.441406 82.660156 C 295.25 68.75 307.835938 60.078125 319.546875 63.289063 C 331.261719 66.503906 337.660156 80.378906 333.851563 94.289063 "/>
<path style="fill:none;stroke-width:0.25;stroke-linecap:butt;stroke-linejoin:miter;stroke:rgb(0%,65.098572%,31.369019%);stroke-opacity:1;stroke-miterlimit:10;" d="M -0.0019375 0.0012375 C -3.814437 -13.905012 -16.400375 -22.576887 -28.115219 -19.36595 C -39.82225 -16.155012 -46.220687 -2.276106 -42.412094 11.630144 C -38.6035 25.5403 -26.017562 34.212175 -14.306625 31.001238 C -2.591781 27.786394 3.806656 13.911394 -0.0019375 0.0012375 Z M -0.0019375 0.0012375 " transform="matrix(1,0,0,-1,333.8535,94.2903)"/>
<path style=" stroke:none;fill-rule:nonzero;fill:rgb(100%,100%,100%);fill-opacity:1;" d="M 382.464844 96.78125 C 378.65625 110.6875 366.417969 119.453125 355.132813 116.359375 C 343.855469 113.269531 337.796875 99.488281 341.609375 85.582031 C 345.433594 71.671875 357.660156 62.90625 368.945313 65.996094 C 380.230469 69.09375 386.285156 82.871094 382.464844 96.78125 "/>
<path style="fill:none;stroke-width:0.25;stroke-linecap:butt;stroke-linejoin:miter;stroke:rgb(0%,65.098572%,31.369019%);stroke-opacity:1;stroke-miterlimit:10;" d="M -0.00095625 0.00125 C -3.80955 -13.905 -16.047831 -22.670625 -27.332988 -19.576875 C -38.610331 -16.487031 -44.668925 -2.705781 -40.856425 11.200469 C -37.032206 25.110625 -24.805644 33.87625 -13.520488 30.786406 C -2.235331 27.68875 3.819356 13.911406 -0.00095625 0.00125 Z M -0.00095625 0.00125 " transform="matrix(1,0,0,-1,382.4658,96.7825)"/>
<path style=" stroke:none;fill-rule:nonzero;fill:rgb(0%,65.098572%,31.369019%);fill-opacity:1;" d="M 323.59375 76.617188 C 322.113281 81.996094 316.648438 85.1875 311.375 83.742188 C 306.09375 82.292969 303.019531 76.761719 304.496094 71.378906 C 305.972656 66 311.445313 62.804688 316.714844 64.253906 C 321.992188 65.699219 325.070313 71.238281 323.59375 76.617188 "/>
<path style=" stroke:none;fill-rule:nonzero;fill:rgb(0%,65.098572%,31.369019%);fill-opacity:1;" d="M 373.648438 79.15625 C 372.289063 84.566406 366.890625 87.882813 361.585938 86.554688 C 356.285156 85.222656 353.082031 79.757813 354.429688 74.34375 C 355.792969 68.9375 361.195313 65.621094 366.492188 66.949219 C 371.800781 68.277344 375 73.75 373.648438 79.15625 "/>
<path style=" stroke:none;fill-rule:nonzero;fill:rgb(100%,100%,100%);fill-opacity:1;" d="M 277.921875 139.542969 C 277.921875 139.542969 311.15625 191.78125 376.890625 139.976563 C 376.890625 139.976563 317.410156 211.1875 277.921875 139.542969 "/>
<path style="fill:none;stroke-width:0.5;stroke-linecap:butt;stroke-linejoin:miter;stroke:rgb(0%,65.098572%,31.369019%);stroke-opacity:1;stroke-miterlimit:10;" d="M 0.000475 -0.00116875 C 0.000475 -0.00116875 33.23485 -52.23945 98.969225 -0.434763 C 98.969225 -0.434763 39.488756 -71.6457 0.000475 -0.00116875 Z M 0.000475 -0.00116875 " transform="matrix(1,0,0,-1,277.9214,139.5418)"/>
</g>
</svg>
